<svg version="1.1" id="Layer_1" xmlns="http://www.w3.org/2000/svg" xmlns:xlink="http://www.w3.org/1999/xlink" x="0px" y="0px"
	 width="100%" viewBox="0 0 1280 1024" enable-background="new 0 0 1280 1024" xml:space="preserve">
<path fill="#FFFFFF" opacity="1.000000" stroke="none" 
	d="
M635.000000,1025.000000 
	C423.333344,1025.000000 212.166672,1025.000000 1.000000,1025.000000 
	C1.000000,683.666687 1.000000,342.333344 1.000000,1.000000 
	C427.666656,1.000000 854.333313,1.000000 1281.000000,1.000000 
	C1281.000000,342.333344 1281.000000,683.666687 1281.000000,1025.000000 
	C1065.833374,1025.000000 850.666687,1025.000000 635.000000,1025.000000 
M646.313782,390.394226 
	C646.313782,419.393921 646.313782,448.393616 646.313782,477.758148 
	C652.191833,477.371521 657.400574,477.512360 662.414062,476.590973 
	C670.880554,475.035004 679.596375,473.752136 687.525024,470.624481 
	C697.752441,466.590027 707.308228,460.853119 717.863403,455.610199 
	C732.025391,446.952362 743.570251,435.435730 752.696472,421.760101 
	C774.449524,389.162750 781.114868,353.696228 771.208862,315.518402 
	C762.615295,282.398865 743.440796,256.855927 714.704773,238.585587 
	C693.206238,224.916870 669.444641,218.905685 644.006104,218.966248 
	C600.188782,219.070557 556.371033,218.989273 512.553467,218.985886 
	C510.612122,218.985733 508.670746,218.985855 506.454041,218.985855 
	C506.454041,333.875153 506.454041,448.063995 506.454041,562.396973 
	C529.756714,562.396973 552.761719,562.396973 575.999023,562.396973 
	C575.999023,560.249939 575.999084,558.593140 575.999084,556.936279 
	C575.998169,489.960388 575.986084,422.984467 576.042114,356.008606 
	C576.044128,353.625153 576.720215,351.242249 577.687561,349.181732 
	C600.529785,362.630310 623.371948,376.078918 646.313782,390.394226 
M492.347290,633.835083 
	C487.699554,633.351135 483.048828,632.893799 478.405151,632.373596 
	C475.415802,632.038757 474.317871,633.185059 474.333832,636.293762 
	C474.441559,657.268250 474.386627,678.243591 474.406647,699.218628 
	C474.407410,700.014221 474.636597,700.809631 474.775543,701.710083 
	C480.377777,701.710083 485.774628,701.710083 491.826111,701.710083 
	C491.826111,689.127502 491.826111,676.835449 491.826111,663.098206 
	C493.805206,666.025024 494.932312,667.619263 495.985352,669.261047 
	C502.271576,679.062317 508.491516,688.906738 514.871704,698.646301 
	C515.769958,700.017456 517.334167,701.688293 518.744690,701.846985 
	C522.648438,702.286133 526.633850,701.999084 530.804932,701.999084 
	C530.804932,678.648621 530.804932,655.780579 530.804932,632.749451 
	C525.130249,632.749451 519.746399,632.749451 513.834167,632.749451 
	C513.834167,643.957703 513.834167,654.794312 513.834167,665.995056 
	C513.037415,665.434998 512.695740,665.311035 512.538940,665.067871 
	C505.958801,654.862549 499.395142,644.646484 492.347290,633.835083 
M759.290833,679.669800 
	C759.884033,674.275513 761.292419,668.822998 760.912292,663.498169 
	C759.909058,649.443420 749.528320,636.809814 736.220825,633.297241 
	C721.038635,629.289795 707.818848,632.979858 697.483582,645.124939 
	C688.533508,655.642334 687.020691,671.649963 693.757935,684.031921 
	C700.740906,696.865540 711.816345,703.761353 726.296143,703.353943 
	C741.823425,702.917053 752.886658,694.858093 759.290833,679.669800 
M956.842712,685.608643 
	C951.899963,672.209900 946.955566,658.811829 942.014893,645.412292 
	C937.141418,632.195190 937.143066,632.300659 923.207397,632.291687 
	C919.995422,632.289612 918.619385,633.347961 917.540039,636.354797 
	C910.245483,656.675720 902.726257,676.916077 895.298523,697.189331 
	C894.771301,698.628357 894.395264,700.122742 893.820923,702.012695 
	C899.395508,702.012695 904.226318,702.218750 909.018738,701.880798 
	C910.368591,701.785645 912.225342,700.371704 912.795593,699.092712 
	C916.829590,690.045471 916.742065,690.006409 926.829712,690.006226 
	C928.327637,690.006165 929.825562,690.006104 931.323486,690.006165 
	C939.970093,690.006165 939.877991,690.044556 943.182861,698.002319 
	C943.826782,699.552856 945.405212,701.702393 946.708008,701.817505 
	C951.752869,702.263428 956.860596,701.998840 962.689697,701.998840 
	C960.625427,696.283569 958.834167,691.324280 956.842712,685.608643 
M407.597443,638.981506 
	C399.954956,659.806213 392.312439,680.630981 384.468964,702.003357 
	C390.301880,702.003357 395.286530,702.138794 400.253082,701.899170 
	C401.364105,701.845520 403.254791,700.577148 403.359467,699.698120 
	C404.545563,689.739685 411.256744,689.075073 419.059174,689.987610 
	C420.208435,690.122009 421.386902,690.006348 422.551849,690.006531 
	C431.046051,690.007751 430.982635,690.032349 434.013397,697.833740 
	C434.603363,699.352295 435.815094,701.699463 436.883911,701.781189 
	C442.214172,702.188538 447.592499,701.967407 453.532013,701.967407 
	C452.635773,699.385742 452.072601,697.675293 451.450928,695.986389 
	C445.026123,678.531128 438.578644,661.084290 432.164948,643.624939 
	C428.027283,632.361328 428.040466,632.602844 416.160980,632.255005 
	C411.367279,632.114685 408.562103,633.364502 407.597443,638.981506 
M588.490601,674.631165 
	C592.423706,674.631165 596.356873,674.631165 600.356567,674.631165 
	C600.356567,668.881531 600.356567,663.835388 600.356567,658.178955 
	C592.273621,658.178955 584.540283,658.178955 576.696289,658.178955 
	C576.696289,654.809143 576.696289,652.058411 576.696289,648.649902 
	C585.527039,648.649902 594.084595,648.649902 602.690552,648.649902 
	C602.690552,642.922546 602.690552,637.861450 602.690552,632.695679 
	C588.137451,632.695679 573.915283,632.695679 559.523315,632.695679 
	C559.523315,655.894775 559.523315,678.756836 559.523315,701.777222 
	C574.262634,701.777222 588.671326,701.777222 603.335632,701.777222 
	C603.335632,696.482849 603.335632,691.426208 603.335632,685.884033 
	C594.274231,685.884033 585.511169,685.884033 576.769653,685.884033 
	C576.769653,681.988525 576.769653,678.583984 576.769653,674.630737 
	C580.582397,674.630737 584.040039,674.630737 588.490601,674.631165 
M823.148804,675.766113 
	C831.368774,669.962830 835.286987,662.153809 833.444519,652.108643 
	C831.667664,642.421143 825.918274,634.898621 816.297119,633.533203 
	C805.777344,632.040222 794.882080,633.193726 783.854309,633.193726 
	C783.854309,655.880676 783.854309,678.760254 783.854309,701.674805 
	C789.502930,701.674805 794.894470,701.674805 800.818970,701.674805 
	C800.818970,694.277588 800.818970,687.203735 800.818970,681.259583 
	C808.564514,679.419128 815.530701,677.763916 823.148804,675.766113 
M369.678040,640.868286 
	C365.673004,638.312683 361.845459,633.971313 357.628082,633.552124 
	C346.982239,632.494019 336.160950,633.201538 325.324768,633.201538 
	C325.324768,655.884949 325.324768,678.774597 325.324768,701.631104 
	C331.029175,701.631104 336.414154,701.631104 342.216431,701.631104 
	C342.216431,694.156067 342.216431,687.055786 342.216431,679.557373 
	C353.183807,680.215759 363.449768,679.686829 370.572998,670.199341 
	C376.972107,661.676331 376.798004,651.025269 369.678040,640.868286 
M645.810974,659.500000 
	C645.810974,650.584229 645.810974,641.668457 645.810974,632.643188 
	C639.753662,632.643188 634.497620,632.643188 628.935547,632.643188 
	C628.935547,655.832275 628.935547,678.742371 628.935547,701.700195 
	C643.552124,701.700195 657.963989,701.700195 672.414551,701.700195 
	C672.414551,696.330444 672.414551,691.276611 672.414551,685.812988 
	C663.437988,685.812988 654.831909,685.812988 645.810791,685.812988 
	C645.810791,677.097046 645.810791,668.798523 645.810974,659.500000 
M872.901245,701.213928 
	C872.901245,678.453857 872.901245,655.693787 872.901245,632.725464 
	C867.184265,632.725464 861.794373,632.725464 856.422852,632.725464 
	C856.422852,655.962097 856.422852,678.841309 856.422852,701.861206 
	C861.917542,701.861206 867.058411,701.861206 872.901245,701.213928 
M973.470032,772.750122 
	C971.058228,772.075256 968.646423,771.400391 965.585815,770.544006 
	C965.585815,785.682800 965.588135,799.466003 965.584778,813.249207 
	C965.583130,820.237305 965.899170,820.487305 973.844849,818.861633 
	C973.844849,811.464905 973.844849,803.867310 973.844849,796.269775 
	C974.335388,796.192505 974.825867,796.115234 975.316406,796.037964 
	C977.943176,802.228210 980.860718,808.315308 983.105286,814.641174 
	C984.921814,819.760681 987.994690,820.677979 992.638916,819.058105 
	C992.638916,803.083374 992.638916,787.236877 992.638916,771.037292 
	C989.960693,771.171631 987.741211,771.282959 984.778992,771.431580 
	C984.778992,780.221863 984.778992,788.459167 984.778992,796.696533 
	C984.411255,796.722656 984.043518,796.748840 983.675781,796.774963 
	C980.396423,788.997681 977.117004,781.220337 973.470032,772.750122 
M1125.376831,796.487366 
	C1125.270386,791.841553 1125.394653,787.176086 1124.999634,782.554932 
	C1124.497803,776.684875 1120.384033,772.013062 1114.659302,771.443237 
	C1109.272217,770.906921 1103.789795,771.328247 1097.809570,771.328247 
	C1097.809570,786.879028 1097.770752,802.112610 1097.922119,817.344360 
	C1097.929810,818.125732 1099.554077,819.533386 1100.453003,819.555725 
	C1105.088501,819.671021 1109.783813,819.817993 1114.361816,819.218201 
	C1120.761963,818.379761 1124.627808,813.929688 1125.170654,807.423462 
	C1125.446045,804.121948 1125.320312,800.786865 1125.376831,796.487366 
M439.152740,790.833008 
	C442.134583,781.957642 438.984772,773.502991 431.055725,771.909912 
	C425.395508,770.772705 419.322693,771.689087 413.382019,771.689087 
	C413.382019,787.661194 413.382019,803.389038 413.382019,819.329163 
	C415.972931,819.329163 418.203094,819.329163 420.211884,819.329163 
	C420.522919,818.881958 420.692627,818.751526 420.695038,818.618164 
	C420.791046,813.302246 420.773529,807.981262 421.026550,802.673218 
	C421.087067,801.404236 421.714661,799.486206 422.641052,799.046875 
	C427.767212,796.616272 432.428040,799.657471 432.576599,805.390381 
	C432.695892,809.994873 432.600739,814.604919 432.600739,819.723450 
	C435.905518,818.777832 440.278534,821.974060 440.455292,817.076233 
	C440.701904,810.241882 442.098663,803.107361 438.282501,796.523010 
	C437.616333,795.373657 438.616394,793.258606 439.152740,790.833008 
M615.936096,819.579407 
	C615.991333,812.525818 616.547668,805.421265 615.839417,798.445190 
	C615.579102,795.881104 614.638672,793.806519 615.890625,791.086548 
	C620.543335,780.978088 614.051392,771.155212 602.902466,771.081421 
	C599.909119,771.061646 596.905945,771.225464 593.924683,771.034180 
	C590.815002,770.834656 589.943237,772.153931 589.968872,775.123047 
	C590.085388,788.593506 590.068298,802.065918 589.976929,815.536743 
	C589.957825,818.355591 590.562805,819.781799 593.818787,819.787109 
	C597.246887,819.792725 598.096069,818.365540 597.931580,815.264709 
	C597.729248,811.450134 597.897522,807.616699 597.876160,803.791504 
	C597.861877,801.234253 597.575989,798.595398 601.471619,798.762268 
	C604.946777,798.911255 608.917419,798.190979 609.215393,803.403503 
	C609.414490,806.885986 609.635071,810.415466 609.291565,813.868774 
	C608.831299,818.494751 610.505493,820.426086 615.936096,819.579407 
M721.180786,810.439026 
	C721.180786,813.359070 721.180786,816.279114 721.180786,819.454773 
	C727.078247,819.454773 732.232544,819.833069 737.307617,819.361023 
	C743.958435,818.742432 748.335693,814.227905 748.655579,807.505371 
	C749.034363,799.545044 749.040405,791.538025 748.650879,783.578491 
	C748.287598,776.154846 743.075012,771.466309 735.632629,771.132385 
	C732.313477,770.983398 728.967651,771.276550 725.662354,771.013062 
	C722.144714,770.732544 721.057129,772.075928 721.110352,775.540588 
	C721.283997,786.844116 721.178223,798.151855 721.180786,810.439026 
M364.992493,800.010559 
	C364.973389,802.009460 364.916962,804.008850 364.943085,806.007141 
	C364.994812,809.966736 363.347382,812.473938 359.142029,812.509644 
	C354.927490,812.545471 353.283966,810.121338 353.313690,806.100769 
	C353.382660,796.769897 353.381042,787.438171 353.346161,778.107056 
	C353.337769,775.861145 353.088318,773.616089 352.927582,771.012329 
	C350.123474,771.154541 347.896606,771.267456 345.338379,771.397217 
	C345.338379,784.052307 344.996613,796.198303 345.463409,808.313110 
	C345.755005,815.881226 351.798187,820.656921 359.304291,820.506592 
	C367.140625,820.349792 372.588501,815.276001 372.854462,807.403564 
	C373.101898,800.079956 372.925262,792.741943 372.931458,785.410278 
	C372.935364,780.802490 372.932190,776.194702 372.932190,771.387329 
	C369.991516,771.387329 367.759705,771.387329 364.995453,771.387329 
	C364.995453,780.857117 364.995453,789.984009 364.992493,800.010559 
M236.611603,783.519043 
	C236.601425,791.341309 236.656189,799.164490 236.551895,806.985535 
	C236.504318,810.552979 234.537048,812.534851 230.899643,812.556274 
	C227.120728,812.578491 224.930038,810.842773 224.943237,806.844604 
	C224.955887,803.016846 224.947388,799.188904 224.947510,795.361084 
	C224.947784,787.432922 224.947586,779.504822 224.947586,771.438843 
	C221.996033,771.438843 219.774826,771.438843 217.072113,771.438843 
	C217.072113,783.431091 216.975342,795.044128 217.104904,806.654541 
	C217.196808,814.890564 222.640930,820.368835 230.439499,820.455505 
	C238.528946,820.545471 244.308731,815.106750 244.544891,806.805847 
	C244.757828,799.322021 244.626007,791.828247 244.639343,784.338867 
	C244.646942,780.066711 244.640732,775.794556 244.640732,771.363037 
	C241.648438,771.363037 239.391434,771.363037 237.254745,771.363037 
	C236.999039,771.949951 236.760498,772.248047 236.753647,772.551453 
	C236.678619,775.877380 236.639725,779.204102 236.611603,783.519043 
M296.956635,809.841064 
	C297.370850,811.279480 297.797546,812.714478 298.197113,814.156982 
	C299.937714,820.440552 301.078796,820.999512 307.919464,818.552307 
	C305.956085,812.266296 303.665741,806.032227 302.150177,799.615112 
	C301.399170,796.435364 301.455414,792.767334 302.235626,789.587463 
	C303.716522,783.551758 305.981384,777.708435 307.944275,771.712769 
	C300.042908,770.288635 299.981476,770.330017 297.901672,777.085266 
	C297.154633,779.511658 296.370667,781.926758 295.603516,784.346985 
	C295.130096,784.357849 294.656677,784.368713 294.183258,784.379578 
	C293.377747,781.803040 292.506561,779.244873 291.779785,776.646301 
	C290.014374,770.334351 288.986755,769.807068 281.990265,772.172546 
	C283.386963,776.391785 284.373596,780.819702 286.280548,784.807434 
	C289.461914,791.460144 289.095886,797.782837 286.440857,804.445862 
	C284.577209,809.122803 283.391632,814.069946 281.885834,818.952942 
	C289.758209,820.489075 289.821045,820.475586 291.678558,813.989441 
	C292.505646,811.101501 293.203217,808.176514 293.959564,805.268311 
	C294.300842,805.271790 294.642090,805.275269 294.983337,805.278748 
	C295.512482,806.568665 296.041626,807.858582 296.956635,809.841064 
M1047.458252,819.688599 
	C1050.527222,819.688599 1053.596069,819.688599 1056.570312,819.688599 
	C1056.570312,816.566406 1056.570312,814.358643 1056.570312,811.683350 
	C1052.842651,811.683350 1049.525635,811.497375 1046.238770,811.733337 
	C1042.639282,811.991821 1041.430786,810.422852 1041.785156,807.058594 
	C1041.923706,805.742615 1041.926392,804.390137 1041.799194,803.072815 
	C1041.481934,799.784058 1043.001709,798.589050 1046.164429,798.747986 
	C1049.099731,798.895569 1052.048340,798.779419 1055.320068,798.779419 
	C1055.320068,795.943481 1055.320068,793.727173 1055.320068,790.955872 
	C1053.264404,790.955872 1051.481689,790.963623 1049.698975,790.954529 
	C1041.426758,790.912109 1041.581421,790.913696 1041.750122,782.814941 
	C1041.816406,779.638428 1043.094604,778.781433 1045.956787,778.890991 
	C1049.527466,779.027710 1053.107300,778.923828 1056.549316,778.923828 
	C1056.549316,775.846375 1056.549316,773.630188 1056.549316,771.386169 
	C1048.854248,771.386169 1041.607300,771.386169 1033.749023,771.386169 
	C1033.749023,773.329651 1033.749390,774.947815 1033.748779,776.565918 
	C1033.745117,786.707764 1033.738647,796.849670 1033.738037,806.991516 
	C1033.737305,819.685669 1033.739258,819.685669 1047.458252,819.688599 
M658.114197,771.421448 
	C657.806641,775.994812 657.285767,780.565674 657.233643,785.141968 
	C657.104980,796.426636 657.191467,807.713806 657.191467,819.691345 
	C663.328613,819.691345 668.942139,819.712158 674.555420,819.686035 
	C681.346130,819.654419 681.871338,818.851746 679.489807,811.698059 
	C678.158752,811.698059 676.683289,811.701233 675.207886,811.697571 
	C664.233826,811.670044 663.968872,811.346436 665.626221,799.977661 
	C665.648315,799.826355 665.773010,799.690063 666.229736,798.837891 
	C670.052185,798.837891 674.286194,798.837891 678.755127,798.837891 
	C678.755127,795.875305 678.755127,793.621582 678.755127,790.938965 
	C675.536987,790.938965 672.564148,790.762817 669.621033,790.983459 
	C665.933167,791.259949 664.860718,789.473145 665.268005,786.199463 
	C665.633301,783.263306 663.597656,778.979858 669.301331,779.023376 
	C672.906860,779.050842 676.512817,779.028503 680.221863,779.028503 
	C680.221863,776.016479 680.221863,773.776428 680.221863,771.152649 
	C672.913940,771.152649 665.947754,771.152649 658.114197,771.421448 
M800.760803,790.940125 
	C796.491760,791.494446 796.911743,788.527039 796.880798,785.831482 
	C796.801819,778.942627 796.785217,778.943359 803.492126,778.948059 
	C806.128479,778.949890 808.764893,778.948364 811.243408,778.948364 
	C813.284485,771.738953 812.834351,771.085022 806.293213,771.064880 
	C802.297363,771.052612 798.280090,771.320190 794.311340,770.992004 
	C790.230042,770.654541 788.807068,771.917053 788.895386,776.190857 
	C789.160339,789.005676 788.979980,801.829407 789.008667,814.649597 
	C789.012207,816.226013 789.229614,817.801880 789.372559,819.706604 
	C796.230164,819.706604 802.536865,819.623413 808.839661,819.742004 
	C811.946533,819.800415 812.277283,818.086426 812.297424,815.599182 
	C812.319519,812.887878 811.377869,811.590210 808.532349,811.683167 
	C804.906921,811.801575 801.274780,811.711853 796.907104,811.711853 
	C796.907104,808.561401 797.078674,805.938538 796.864929,803.347412 
	C796.579956,799.892090 797.864929,798.457092 801.399963,798.728821 
	C804.320679,798.953308 807.272339,798.774658 810.435791,798.774658 
	C810.435791,795.846558 810.435791,793.627136 810.435791,790.944580 
	C807.299805,790.944580 804.499146,790.944580 800.760803,790.940125 
M852.947021,780.546448 
	C852.947021,793.449829 852.947021,806.353271 852.947021,819.262207 
	C856.023010,819.262207 858.250183,819.262207 860.877319,819.262207 
	C860.877319,813.896667 861.135742,808.908630 860.799255,803.961121 
	C860.506592,799.657532 862.227844,798.324707 866.258728,798.714783 
	C868.850220,798.965515 871.485718,798.761780 874.421509,798.761780 
	C874.421509,795.955383 874.421509,793.737915 874.421509,790.951172 
	C871.365723,790.951172 868.544006,790.688354 865.791443,791.012634 
	C861.635132,791.502258 860.416687,789.638062 860.875671,785.885376 
	C860.996094,784.900330 860.996582,783.879944 860.893860,782.892212 
	C860.574341,779.823059 861.936584,778.703003 864.949158,778.893433 
	C867.767517,779.071655 870.702087,779.325684 873.393921,778.709473 
	C874.580261,778.437927 875.938232,776.129333 876.014893,774.681885 
	C876.075867,773.530029 874.356262,771.285400 873.345581,771.237122 
	C866.757019,770.922791 860.146240,771.075623 852.945984,771.075623 
	C852.945984,774.318481 852.945984,776.940796 852.947021,780.546448 
M489.972687,785.451843 
	C489.179504,785.150940 487.875366,785.039734 487.681122,784.516479 
	C486.816315,782.187073 486.288452,779.734253 485.603394,777.336182 
	C483.565582,770.203125 483.544739,770.196533 475.478973,771.801331 
	C480.723236,787.260132 487.882355,802.316772 484.666382,819.353516 
	C487.031738,819.505615 488.182068,819.675415 489.322876,819.625549 
	C490.432831,819.577087 491.533020,819.303772 493.491089,818.994202 
	C489.939270,801.966187 497.453278,787.086304 502.483276,771.693848 
	C494.364044,770.433411 494.356873,770.431335 492.334198,777.488831 
	C491.647125,779.885986 491.006165,782.296326 489.972687,785.451843 
M179.493576,812.421509 
	C177.703476,812.196594 175.916458,811.807251 174.122787,811.773743 
	C163.176605,811.569092 165.022614,812.643921 164.926834,802.921326 
	C164.824112,792.495422 164.903656,782.067688 164.903656,771.376953 
	C162.046768,771.376953 159.823425,771.376953 157.358185,771.376953 
	C157.358185,787.528076 157.358185,803.363647 157.358185,819.359558 
	C164.997391,819.359558 172.225510,819.359558 179.868515,819.359558 
	C179.868515,817.063477 179.868515,815.107483 179.493576,812.421509 
M917.433228,786.508850 
	C917.431213,796.298950 917.536011,806.090942 917.368469,815.878235 
	C917.310852,819.244507 919.054382,819.535706 921.695496,819.689758 
	C924.651489,819.862183 925.488159,818.534241 925.481750,815.899414 
	C925.448364,802.127563 925.425415,788.355286 925.506897,774.583740 
	C925.524597,771.594971 924.020752,771.042969 921.465881,771.018799 
	C918.879333,770.994385 917.330994,771.580139 917.427307,774.563843 
	C917.545044,778.210266 917.438538,781.863892 917.433228,786.508850 
z"/>
<path fill="#F8AB0F" opacity="1.000000" stroke="none" 
	d="
M577.082153,348.859100 
	C576.720215,351.242249 576.044128,353.625153 576.042114,356.008606 
	C575.986084,422.984467 575.998169,489.960388 575.999084,556.936279 
	C575.999084,558.593140 575.999023,560.249939 575.999023,562.396973 
	C552.761719,562.396973 529.756714,562.396973 506.454041,562.396973 
	C506.454041,448.063995 506.454041,333.875153 506.454041,218.985855 
	C508.670746,218.985855 510.612122,218.985733 512.553467,218.985886 
	C556.371033,218.989273 600.188782,219.070557 644.006104,218.966248 
	C669.444641,218.905685 693.206238,224.916870 714.704773,238.585587 
	C743.440796,256.855927 762.615295,282.398865 771.208862,315.518402 
	C781.114868,353.696228 774.449524,389.162750 752.696472,421.760101 
	C743.570251,435.435730 732.025391,446.952362 717.421448,455.190430 
	C716.910645,450.957520 716.787109,447.144531 716.781433,443.331329 
	C716.734863,411.970978 716.710205,380.610657 716.592285,348.932190 
	C693.875916,335.099274 671.267151,321.548676 648.554016,308.175476 
	C647.420349,307.508026 645.089600,307.873688 643.806702,308.611389 
	C627.270752,318.119873 610.772095,327.696320 594.382202,337.454163 
	C588.453552,340.983795 582.839661,345.042023 577.082153,348.859100 
z"/>
<path fill="#3CBCBF" opacity="1.000000" stroke="none" 
	d="
M716.678894,349.250305 
	C716.710205,380.610657 716.734863,411.970978 716.781433,443.331329 
	C716.787109,447.144531 716.910645,450.957520 717.066406,455.309998 
	C707.308228,460.853119 697.752441,466.590027 687.525024,470.624481 
	C679.596375,473.752136 670.880554,475.035004 662.414062,476.590973 
	C657.400574,477.512360 652.191833,477.371521 646.313782,477.758148 
	C646.313782,448.393616 646.313782,419.393921 646.601929,389.836487 
	C662.491211,380.173737 678.060730,371.013794 693.707214,361.987244 
	C701.290039,357.612640 709.017090,353.488068 716.678894,349.250305 
z"/>
<path fill="#EF471E" opacity="1.000000" stroke="none" 
	d="
M716.592285,348.932159 
	C709.017090,353.488068 701.290039,357.612640 693.707214,361.987244 
	C678.060730,371.013794 662.491211,380.173737 646.552124,389.403137 
	C623.371948,376.078918 600.529785,362.630310 577.384888,349.020416 
	C582.839661,345.042023 588.453552,340.983795 594.382202,337.454163 
	C610.772095,327.696320 627.270752,318.119873 643.806702,308.611389 
	C645.089600,307.873688 647.420349,307.508026 648.554016,308.175476 
	C671.267151,321.548676 693.875916,335.099274 716.592285,348.932159 
z"/>
<path fill="#757575" opacity="1.000000" stroke="none" 
	d="
M492.588379,634.133423 
	C499.395142,644.646484 505.958801,654.862549 512.538940,665.067871 
	C512.695740,665.311035 513.037415,665.434998 513.834167,665.995056 
	C513.834167,654.794312 513.834167,643.957703 513.834167,632.749451 
	C519.746399,632.749451 525.130249,632.749451 530.804932,632.749451 
	C530.804932,655.780579 530.804932,678.648621 530.804932,701.999084 
	C526.633850,701.999084 522.648438,702.286133 518.744690,701.846985 
	C517.334167,701.688293 515.769958,700.017456 514.871704,698.646301 
	C508.491516,688.906738 502.271576,679.062317 495.985352,669.261047 
	C494.932312,667.619263 493.805206,666.025024 491.826111,663.098206 
	C491.826111,676.835449 491.826111,689.127502 491.826111,701.710083 
	C485.774628,701.710083 480.377777,701.710083 474.775543,701.710083 
	C474.636597,700.809631 474.407410,700.014221 474.406647,699.218628 
	C474.386627,678.243591 474.441559,657.268250 474.333832,636.293762 
	C474.317871,633.185059 475.415802,632.038757 478.405151,632.373596 
	C483.048828,632.893799 487.699554,633.351135 492.588379,634.133423 
z"/>
<path fill="#757575" opacity="1.000000" stroke="none" 
	d="
M759.166504,680.041626 
	C752.886658,694.858093 741.823425,702.917053 726.296143,703.353943 
	C711.816345,703.761353 700.740906,696.865540 693.757935,684.031921 
	C687.020691,671.649963 688.533508,655.642334 697.483582,645.124939 
	C707.818848,632.979858 721.038635,629.289795 736.220825,633.297241 
	C749.528320,636.809814 759.909058,649.443420 760.912292,663.498169 
	C761.292419,668.822998 759.884033,674.275513 759.166504,680.041626 
M718.805420,685.100159 
	C730.435913,688.504089 740.888977,683.207153 743.736145,672.466797 
	C746.442749,662.256348 740.207764,651.555298 730.168579,649.181030 
	C720.729248,646.948608 711.309631,651.770691 707.767029,660.648804 
	C704.133362,669.755310 708.317871,679.612549 718.805420,685.100159 
z"/>
<path fill="#757575" opacity="1.000000" stroke="none" 
	d="
M956.942810,685.986816 
	C958.834167,691.324280 960.625427,696.283569 962.689697,701.998840 
	C956.860596,701.998840 951.752869,702.263428 946.708008,701.817505 
	C945.405212,701.702393 943.826782,699.552856 943.182861,698.002319 
	C939.877991,690.044556 939.970093,690.006165 931.323486,690.006165 
	C929.825562,690.006104 928.327637,690.006165 926.829712,690.006226 
	C916.742065,690.006409 916.829590,690.045471 912.795593,699.092712 
	C912.225342,700.371704 910.368591,701.785645 909.018738,701.880798 
	C904.226318,702.218750 899.395508,702.012695 893.820923,702.012695 
	C894.395264,700.122742 894.771301,698.628357 895.298523,697.189331 
	C902.726257,676.916077 910.245483,656.675720 917.540039,636.354797 
	C918.619385,633.347961 919.995422,632.289612 923.207397,632.291687 
	C937.143066,632.300659 937.141418,632.195190 942.014893,645.412292 
	C946.955566,658.811829 951.899963,672.209900 956.942810,685.986816 
M929.738342,660.975281 
	C929.339478,660.098206 928.940613,659.221130 928.048584,657.259460 
	C925.896423,663.211853 924.056702,668.299927 922.126892,673.637268 
	C926.467896,673.637268 930.042358,673.637268 934.155396,673.637268 
	C932.669128,669.398682 931.316956,665.542297 929.738342,660.975281 
z"/>
<path fill="#757575" opacity="1.000000" stroke="none" 
	d="
M407.739044,638.615723 
	C408.562103,633.364502 411.367279,632.114685 416.160980,632.255005 
	C428.040466,632.602844 428.027283,632.361328 432.164948,643.624939 
	C438.578644,661.084290 445.026123,678.531128 451.450928,695.986389 
	C452.072601,697.675293 452.635773,699.385742 453.532013,701.967407 
	C447.592499,701.967407 442.214172,702.188538 436.883911,701.781189 
	C435.815094,701.699463 434.603363,699.352295 434.013397,697.833740 
	C430.982635,690.032349 431.046051,690.007751 422.551849,690.006531 
	C421.386902,690.006348 420.208435,690.122009 419.059174,689.987610 
	C411.256744,689.075073 404.545563,689.739685 403.359467,699.698120 
	C403.254791,700.577148 401.364105,701.845520 400.253082,701.899170 
	C395.286530,702.138794 390.301880,702.003357 384.468964,702.003357 
	C392.312439,680.630981 399.954956,659.806213 407.739044,638.615723 
M424.208282,671.271301 
	C422.674042,666.939575 421.139832,662.607849 419.605591,658.276123 
	C419.237671,658.350891 418.869751,658.425659 418.501801,658.500366 
	C416.696869,663.477844 414.891968,668.455322 412.926300,673.875977 
	C416.239410,673.875977 418.714417,673.876282 421.189423,673.875610 
	C421.685883,673.875488 422.315094,674.063171 422.651215,673.829956 
	C423.351990,673.343872 423.897827,672.634277 424.208282,671.271301 
z"/>
<path fill="#777777" opacity="1.000000" stroke="none" 
	d="
M587.994141,674.630981 
	C584.040039,674.630737 580.582397,674.630737 576.769653,674.630737 
	C576.769653,678.583984 576.769653,681.988525 576.769653,685.884033 
	C585.511169,685.884033 594.274231,685.884033 603.335632,685.884033 
	C603.335632,691.426208 603.335632,696.482849 603.335632,701.777222 
	C588.671326,701.777222 574.262634,701.777222 559.523315,701.777222 
	C559.523315,678.756836 559.523315,655.894775 559.523315,632.695679 
	C573.915283,632.695679 588.137451,632.695679 602.690552,632.695679 
	C602.690552,637.861450 602.690552,642.922546 602.690552,648.649902 
	C594.084595,648.649902 585.527039,648.649902 576.696289,648.649902 
	C576.696289,652.058411 576.696289,654.809143 576.696289,658.178955 
	C584.540283,658.178955 592.273621,658.178955 600.356567,658.178955 
	C600.356567,663.835388 600.356567,668.881531 600.356567,674.631165 
	C596.356873,674.631165 592.423706,674.631165 587.994141,674.630981 
z"/>
<path fill="#757575" opacity="1.000000" stroke="none" 
	d="
M822.822876,675.937378 
	C815.530701,677.763916 808.564514,679.419128 800.818970,681.259583 
	C800.818970,687.203735 800.818970,694.277588 800.818970,701.674805 
	C794.894470,701.674805 789.502930,701.674805 783.854309,701.674805 
	C783.854309,678.760254 783.854309,655.880676 783.854309,633.193726 
	C794.882080,633.193726 805.777344,632.040222 816.297119,633.533203 
	C825.918274,634.898621 831.667664,642.421143 833.444519,652.108643 
	C835.286987,662.153809 831.368774,669.962830 822.822876,675.937378 
M815.156311,661.771118 
	C818.573547,657.021973 818.981567,652.347473 814.977844,650.631409 
	C810.878296,648.874329 805.826660,649.325989 801.184204,648.892395 
	C800.996399,648.874939 800.534607,649.691589 800.531494,650.122009 
	C800.503052,654.110168 800.484314,658.101318 800.647278,662.084167 
	C800.668579,662.604858 801.770569,663.550049 802.307068,663.506226 
	C806.375732,663.173218 810.428101,662.642456 815.156311,661.771118 
z"/>
<path fill="#757575" opacity="1.000000" stroke="none" 
	d="
M369.897522,641.155090 
	C376.798004,651.025269 376.972107,661.676331 370.572998,670.199341 
	C363.449768,679.686829 353.183807,680.215759 342.216431,679.557373 
	C342.216431,687.055786 342.216431,694.156067 342.216431,701.631104 
	C336.414154,701.631104 331.029175,701.631104 325.324768,701.631104 
	C325.324768,678.774597 325.324768,655.884949 325.324768,633.201538 
	C336.160950,633.201538 346.982239,632.494019 357.628082,633.552124 
	C361.845459,633.971313 365.673004,638.312683 369.897522,641.155090 
M347.480530,663.650574 
	C348.809326,663.647339 350.144531,663.727356 351.465759,663.625732 
	C356.172668,663.263489 359.121246,660.376892 359.046204,656.066833 
	C358.967133,651.526611 356.457550,648.947083 352.028076,648.571228 
	C348.793945,648.296814 345.517792,648.517517 342.117767,648.517517 
	C342.117767,653.704468 342.117767,658.328735 342.117767,663.352112 
	C343.691467,663.457092 345.136810,663.553467 347.480530,663.650574 
z"/>
<path fill="#757575" opacity="1.000000" stroke="none" 
	d="
M645.810913,660.000000 
	C645.810791,668.798523 645.810791,677.097046 645.810791,685.812988 
	C654.831909,685.812988 663.437988,685.812988 672.414551,685.812988 
	C672.414551,691.276611 672.414551,696.330444 672.414551,701.700195 
	C657.963989,701.700195 643.552124,701.700195 628.935547,701.700195 
	C628.935547,678.742371 628.935547,655.832275 628.935547,632.643188 
	C634.497620,632.643188 639.753662,632.643188 645.810974,632.643188 
	C645.810974,641.668457 645.810974,650.584229 645.810913,660.000000 
z"/>
<path fill="#757575" opacity="1.000000" stroke="none" 
	d="
M872.550293,701.537598 
	C867.058411,701.861206 861.917542,701.861206 856.422852,701.861206 
	C856.422852,678.841309 856.422852,655.962097 856.422852,632.725464 
	C861.794373,632.725464 867.184265,632.725464 872.901245,632.725464 
	C872.901245,655.693787 872.901245,678.453857 872.550293,701.537598 
z"/>
<path fill="#F4AD1F" opacity="1.000000" stroke="none" 
	d="
M973.653809,773.096558 
	C977.117004,781.220337 980.396423,788.997681 983.675781,796.774963 
	C984.043518,796.748840 984.411255,796.722656 984.778992,796.696533 
	C984.778992,788.459167 984.778992,780.221863 984.778992,771.431580 
	C987.741211,771.282959 989.960693,771.171631 992.638916,771.037292 
	C992.638916,787.236877 992.638916,803.083374 992.638916,819.058105 
	C987.994690,820.677979 984.921814,819.760681 983.105286,814.641174 
	C980.860718,808.315308 977.943176,802.228210 975.316406,796.037964 
	C974.825867,796.115234 974.335388,796.192505 973.844849,796.269775 
	C973.844849,803.867310 973.844849,811.464905 973.844849,818.861633 
	C965.899170,820.487305 965.583130,820.237305 965.584778,813.249207 
	C965.588135,799.466003 965.585815,785.682800 965.585815,770.544006 
	C968.646423,771.400391 971.058228,772.075256 973.653809,773.096558 
z"/>
<path fill="#F3AE23" opacity="1.000000" stroke="none" 
	d="
M1125.376343,796.977173 
	C1125.320312,800.786865 1125.446045,804.121948 1125.170654,807.423462 
	C1124.627808,813.929688 1120.761963,818.379761 1114.361816,819.218201 
	C1109.783813,819.817993 1105.088501,819.671021 1100.453003,819.555725 
	C1099.554077,819.533386 1097.929810,818.125732 1097.922119,817.344360 
	C1097.770752,802.112610 1097.809570,786.879028 1097.809570,771.328247 
	C1103.789795,771.328247 1109.272217,770.906921 1114.659302,771.443237 
	C1120.384033,772.013062 1124.497803,776.684875 1124.999634,782.554932 
	C1125.394653,787.176086 1125.270386,791.841553 1125.376343,796.977173 
M1105.754150,789.522339 
	C1105.757446,795.657532 1105.681274,801.794556 1105.828003,807.926331 
	C1105.858887,809.219543 1106.336182,811.161316 1107.240601,811.662598 
	C1111.607422,814.083313 1117.257446,811.191101 1117.515503,806.180664 
	C1117.881470,799.075378 1117.854370,791.923401 1117.500610,784.816040 
	C1117.229980,779.378784 1115.389648,778.521179 1108.956055,778.839539 
	C1103.930420,779.088196 1106.250244,782.725098 1105.800537,785.057983 
	C1105.584473,786.177673 1105.757690,787.372375 1105.754150,789.522339 
z"/>
<path fill="#F4AE20" opacity="1.000000" stroke="none" 
	d="
M438.999817,791.211304 
	C438.616394,793.258606 437.616333,795.373657 438.282501,796.523010 
	C442.098663,803.107361 440.701904,810.241882 440.455292,817.076233 
	C440.278534,821.974060 435.905518,818.777832 432.600739,819.723450 
	C432.600739,814.604919 432.695892,809.994873 432.576599,805.390381 
	C432.428040,799.657471 427.767212,796.616272 422.641052,799.046875 
	C421.714661,799.486206 421.087067,801.404236 421.026550,802.673218 
	C420.773529,807.981262 420.791046,813.302246 420.695038,818.618164 
	C420.692627,818.751526 420.522919,818.881958 420.211884,819.329163 
	C418.203094,819.329163 415.972931,819.329163 413.382019,819.329163 
	C413.382019,803.389038 413.382019,787.661194 413.382019,771.689087 
	C419.322693,771.689087 425.395508,770.772705 431.055725,771.909912 
	C438.984772,773.502991 442.134583,781.957642 438.999817,791.211304 
M432.626709,786.898621 
	C432.964355,779.254395 430.659485,777.720032 421.345490,779.535706 
	C421.345490,783.173218 421.345490,786.836609 421.345490,790.651184 
	C425.618896,790.756165 429.792023,792.221069 432.626709,786.898621 
z"/>
<path fill="#F3AE23" opacity="1.000000" stroke="none" 
	d="
M615.529846,819.637817 
	C610.505493,820.426086 608.831299,818.494751 609.291565,813.868774 
	C609.635071,810.415466 609.414490,806.885986 609.215393,803.403503 
	C608.917419,798.190979 604.946777,798.911255 601.471619,798.762268 
	C597.575989,798.595398 597.861877,801.234253 597.876160,803.791504 
	C597.897522,807.616699 597.729248,811.450134 597.931580,815.264709 
	C598.096069,818.365540 597.246887,819.792725 593.818787,819.787109 
	C590.562805,819.781799 589.957825,818.355591 589.976929,815.536743 
	C590.068298,802.065918 590.085388,788.593506 589.968872,775.123047 
	C589.943237,772.153931 590.815002,770.834656 593.924683,771.034180 
	C596.905945,771.225464 599.909119,771.061646 602.902466,771.081421 
	C614.051392,771.155212 620.543335,780.978088 615.890625,791.086548 
	C614.638672,793.806519 615.579102,795.881104 615.839417,798.445190 
	C616.547668,805.421265 615.991333,812.525818 615.529846,819.637817 
M597.846313,786.363037 
	C597.068848,791.968689 601.068542,791.023315 604.206238,790.801331 
	C608.253601,790.515015 610.189270,787.668335 609.534851,783.491760 
	C608.831421,779.002319 605.591492,777.875610 597.837708,779.749268 
	C597.837708,781.549500 597.837708,783.489136 597.846313,786.363037 
z"/>
<path fill="#F5AF23" opacity="1.000000" stroke="none" 
	d="
M721.180420,809.948486 
	C721.178223,798.151855 721.283997,786.844116 721.110352,775.540588 
	C721.057129,772.075928 722.144714,770.732544 725.662354,771.013062 
	C728.967651,771.276550 732.313477,770.983398 735.632629,771.132385 
	C743.075012,771.466309 748.287598,776.154846 748.650879,783.578491 
	C749.040405,791.538025 749.034363,799.545044 748.655579,807.505371 
	C748.335693,814.227905 743.958435,818.742432 737.307617,819.361023 
	C732.232544,819.833069 727.078247,819.454773 721.180786,819.454773 
	C721.180786,816.279114 721.180786,813.359070 721.180420,809.948486 
M740.991760,797.469971 
	C740.991455,794.474609 740.993713,791.479187 740.990295,788.483826 
	C740.979736,779.041931 739.150635,777.602661 729.421997,779.554993 
	C729.421997,790.217896 729.421997,800.913940 729.421997,811.556702 
	C739.632263,812.810181 740.977722,811.647522 740.995544,801.947205 
	C740.997681,800.782349 740.993774,799.617432 740.991760,797.469971 
z"/>
<path fill="#F4B025" opacity="1.000000" stroke="none" 
	d="
M364.993958,799.560669 
	C364.995453,789.984009 364.995453,780.857117 364.995453,771.387329 
	C367.759705,771.387329 369.991516,771.387329 372.932190,771.387329 
	C372.932190,776.194702 372.935364,780.802490 372.931458,785.410278 
	C372.925262,792.741943 373.101898,800.079956 372.854462,807.403564 
	C372.588501,815.276001 367.140625,820.349792 359.304291,820.506592 
	C351.798187,820.656921 345.755005,815.881226 345.463409,808.313110 
	C344.996613,796.198303 345.338379,784.052307 345.338379,771.397217 
	C347.896606,771.267456 350.123474,771.154541 352.927582,771.012329 
	C353.088318,773.616089 353.337769,775.861145 353.346161,778.107056 
	C353.381042,787.438171 353.382660,796.769897 353.313690,806.100769 
	C353.283966,810.121338 354.927490,812.545471 359.142029,812.509644 
	C363.347382,812.473938 364.994812,809.966736 364.943085,806.007141 
	C364.916962,804.008850 364.973389,802.009460 364.993958,799.560669 
z"/>
<path fill="#F4AE20" opacity="1.000000" stroke="none" 
	d="
M236.601318,783.024841 
	C236.639725,779.204102 236.678619,775.877380 236.753647,772.551453 
	C236.760498,772.248047 236.999039,771.949951 237.254745,771.363037 
	C239.391434,771.363037 241.648438,771.363037 244.640732,771.363037 
	C244.640732,775.794556 244.646942,780.066711 244.639343,784.338867 
	C244.626007,791.828247 244.757828,799.322021 244.544891,806.805847 
	C244.308731,815.106750 238.528946,820.545471 230.439499,820.455505 
	C222.640930,820.368835 217.196808,814.890564 217.104904,806.654541 
	C216.975342,795.044128 217.072113,783.431091 217.072113,771.438843 
	C219.774826,771.438843 221.996033,771.438843 224.947586,771.438843 
	C224.947586,779.504822 224.947784,787.432922 224.947510,795.361084 
	C224.947388,799.188904 224.955887,803.016846 224.943237,806.844604 
	C224.930038,810.842773 227.120728,812.578491 230.899643,812.556274 
	C234.537048,812.534851 236.504318,810.552979 236.551895,806.985535 
	C236.656189,799.164490 236.601425,791.341309 236.601318,783.024841 
z"/>
<path fill="#F3AE23" opacity="1.000000" stroke="none" 
	d="
M296.763733,809.494751 
	C296.041626,807.858582 295.512482,806.568665 294.983337,805.278748 
	C294.642090,805.275269 294.300842,805.271790 293.959564,805.268311 
	C293.203217,808.176514 292.505646,811.101501 291.678558,813.989441 
	C289.821045,820.475586 289.758209,820.489075 281.885834,818.952942 
	C283.391632,814.069946 284.577209,809.122803 286.440857,804.445862 
	C289.095886,797.782837 289.461914,791.460144 286.280548,784.807434 
	C284.373596,780.819702 283.386963,776.391785 281.990265,772.172546 
	C288.986755,769.807068 290.014374,770.334351 291.779785,776.646301 
	C292.506561,779.244873 293.377747,781.803040 294.183258,784.379578 
	C294.656677,784.368713 295.130096,784.357849 295.603516,784.346985 
	C296.370667,781.926758 297.154633,779.511658 297.901672,777.085266 
	C299.981476,770.330017 300.042908,770.288635 307.944275,771.712769 
	C305.981384,777.708435 303.716522,783.551758 302.235626,789.587463 
	C301.455414,792.767334 301.399170,796.435364 302.150177,799.615112 
	C303.665741,806.032227 305.956085,812.266296 307.919464,818.552307 
	C301.078796,820.999512 299.937714,820.440552 298.197113,814.156982 
	C297.797546,812.714478 297.370850,811.279480 296.763733,809.494751 
z"/>
<path fill="#F3AE23" opacity="1.000000" stroke="none" 
	d="
M1046.971069,819.689941 
	C1033.739258,819.685669 1033.737305,819.685669 1033.738037,806.991516 
	C1033.738647,796.849670 1033.745117,786.707764 1033.748779,776.565918 
	C1033.749390,774.947815 1033.749023,773.329651 1033.749023,771.386169 
	C1041.607300,771.386169 1048.854248,771.386169 1056.549316,771.386169 
	C1056.549316,773.630188 1056.549316,775.846375 1056.549316,778.923828 
	C1053.107300,778.923828 1049.527466,779.027710 1045.956787,778.890991 
	C1043.094604,778.781433 1041.816406,779.638428 1041.750122,782.814941 
	C1041.581421,790.913696 1041.426758,790.912109 1049.698975,790.954529 
	C1051.481689,790.963623 1053.264404,790.955872 1055.320068,790.955872 
	C1055.320068,793.727173 1055.320068,795.943481 1055.320068,798.779419 
	C1052.048340,798.779419 1049.099731,798.895569 1046.164429,798.747986 
	C1043.001709,798.589050 1041.481934,799.784058 1041.799194,803.072815 
	C1041.926392,804.390137 1041.923706,805.742615 1041.785156,807.058594 
	C1041.430786,810.422852 1042.639282,811.991821 1046.238770,811.733337 
	C1049.525635,811.497375 1052.842651,811.683350 1056.570312,811.683350 
	C1056.570312,814.358643 1056.570312,816.566406 1056.570312,819.688599 
	C1053.596069,819.688599 1050.527222,819.688599 1046.971069,819.689941 
z"/>
<path fill="#F4B025" opacity="1.000000" stroke="none" 
	d="
M658.547913,771.287048 
	C665.947754,771.152649 672.913940,771.152649 680.221863,771.152649 
	C680.221863,773.776428 680.221863,776.016479 680.221863,779.028503 
	C676.512817,779.028503 672.906860,779.050842 669.301331,779.023376 
	C663.597656,778.979858 665.633301,783.263306 665.268005,786.199463 
	C664.860718,789.473145 665.933167,791.259949 669.621033,790.983459 
	C672.564148,790.762817 675.536987,790.938965 678.755127,790.938965 
	C678.755127,793.621582 678.755127,795.875305 678.755127,798.837891 
	C674.286194,798.837891 670.052185,798.837891 666.229736,798.837891 
	C665.773010,799.690063 665.648315,799.826355 665.626221,799.977661 
	C663.968872,811.346436 664.233826,811.670044 675.207886,811.697571 
	C676.683289,811.701233 678.158752,811.698059 679.489807,811.698059 
	C681.871338,818.851746 681.346130,819.654419 674.555420,819.686035 
	C668.942139,819.712158 663.328613,819.691345 657.191467,819.691345 
	C657.191467,807.713806 657.104980,796.426636 657.233643,785.141968 
	C657.285767,780.565674 657.806641,775.994812 658.547913,771.287048 
z"/>
<path fill="#F5AF23" opacity="1.000000" stroke="none" 
	d="
M801.229614,790.942383 
	C804.499146,790.944580 807.299805,790.944580 810.435791,790.944580 
	C810.435791,793.627136 810.435791,795.846558 810.435791,798.774658 
	C807.272339,798.774658 804.320679,798.953308 801.399963,798.728821 
	C797.864929,798.457092 796.579956,799.892090 796.864929,803.347412 
	C797.078674,805.938538 796.907104,808.561401 796.907104,811.711853 
	C801.274780,811.711853 804.906921,811.801575 808.532349,811.683167 
	C811.377869,811.590210 812.319519,812.887878 812.297424,815.599182 
	C812.277283,818.086426 811.946533,819.800415 808.839661,819.742004 
	C802.536865,819.623413 796.230164,819.706604 789.372559,819.706604 
	C789.229614,817.801880 789.012207,816.226013 789.008667,814.649597 
	C788.979980,801.829407 789.160339,789.005676 788.895386,776.190857 
	C788.807068,771.917053 790.230042,770.654541 794.311340,770.992004 
	C798.280090,771.320190 802.297363,771.052612 806.293213,771.064880 
	C812.834351,771.085022 813.284485,771.738953 811.243408,778.948364 
	C808.764893,778.948364 806.128479,778.949890 803.492126,778.948059 
	C796.785217,778.943359 796.801819,778.942627 796.880798,785.831482 
	C796.911743,788.527039 796.491760,791.494446 801.229614,790.942383 
z"/>
<path fill="#F5AF23" opacity="1.000000" stroke="none" 
	d="
M852.946533,780.054810 
	C852.945984,776.940796 852.945984,774.318481 852.945984,771.075623 
	C860.146240,771.075623 866.757019,770.922791 873.345581,771.237122 
	C874.356262,771.285400 876.075867,773.530029 876.014893,774.681885 
	C875.938232,776.129333 874.580261,778.437927 873.393921,778.709473 
	C870.702087,779.325684 867.767517,779.071655 864.949158,778.893433 
	C861.936584,778.703003 860.574341,779.823059 860.893860,782.892212 
	C860.996582,783.879944 860.996094,784.900330 860.875671,785.885376 
	C860.416687,789.638062 861.635132,791.502258 865.791443,791.012634 
	C868.544006,790.688354 871.365723,790.951172 874.421509,790.951172 
	C874.421509,793.737915 874.421509,795.955383 874.421509,798.761780 
	C871.485718,798.761780 868.850220,798.965515 866.258728,798.714783 
	C862.227844,798.324707 860.506592,799.657532 860.799255,803.961121 
	C861.135742,808.908630 860.877319,813.896667 860.877319,819.262207 
	C858.250183,819.262207 856.023010,819.262207 852.947021,819.262207 
	C852.947021,806.353271 852.947021,793.449829 852.946533,780.054810 
z"/>
<path fill="#F3AE23" opacity="1.000000" stroke="none" 
	d="
M490.158386,785.076294 
	C491.006165,782.296326 491.647125,779.885986 492.334198,777.488831 
	C494.356873,770.431335 494.364044,770.433411 502.483276,771.693848 
	C497.453278,787.086304 489.939270,801.966187 493.491089,818.994202 
	C491.533020,819.303772 490.432831,819.577087 489.322876,819.625549 
	C488.182068,819.675415 487.031738,819.505615 484.666382,819.353516 
	C487.882355,802.316772 480.723236,787.260132 475.478973,771.801331 
	C483.544739,770.196533 483.565582,770.203125 485.603394,777.336182 
	C486.288452,779.734253 486.816315,782.187073 487.681122,784.516479 
	C487.875366,785.039734 489.179504,785.150940 490.158386,785.076294 
z"/>
<path fill="#F3AE23" opacity="1.000000" stroke="none" 
	d="
M179.681046,812.786499 
	C179.868515,815.107483 179.868515,817.063477 179.868515,819.359558 
	C172.225510,819.359558 164.997391,819.359558 157.358185,819.359558 
	C157.358185,803.363647 157.358185,787.528076 157.358185,771.376953 
	C159.823425,771.376953 162.046768,771.376953 164.903656,771.376953 
	C164.903656,782.067688 164.824112,792.495422 164.926834,802.921326 
	C165.022614,812.643921 163.176605,811.569092 174.122787,811.773743 
	C175.916458,811.807251 177.703476,812.196594 179.681046,812.786499 
z"/>
<path fill="#F4AD1F" opacity="1.000000" stroke="none" 
	d="
M917.431091,786.011597 
	C917.438538,781.863892 917.545044,778.210266 917.427307,774.563843 
	C917.330994,771.580139 918.879333,770.994385 921.465881,771.018799 
	C924.020752,771.042969 925.524597,771.594971 925.506897,774.583740 
	C925.425415,788.355286 925.448364,802.127563 925.481750,815.899414 
	C925.488159,818.534241 924.651489,819.862183 921.695496,819.689758 
	C919.054382,819.535706 917.310852,819.244507 917.368469,815.878235 
	C917.536011,806.090942 917.431213,796.298950 917.431091,786.011597 
z"/>
<path fill="#FDFDFD" opacity="1.000000" stroke="none" 
	d="
M718.424805,684.979248 
	C708.317871,679.612549 704.133362,669.755310 707.767029,660.648804 
	C711.309631,651.770691 720.729248,646.948608 730.168579,649.181030 
	C740.207764,651.555298 746.442749,662.256348 743.736145,672.466797 
	C740.888977,683.207153 730.435913,688.504089 718.424805,684.979248 
z"/>
<path fill="#F7F7F7" opacity="1.000000" stroke="none" 
	d="
M929.851562,661.330566 
	C931.316956,665.542297 932.669128,669.398682 934.155396,673.637268 
	C930.042358,673.637268 926.467896,673.637268 922.126892,673.637268 
	C924.056702,668.299927 925.896423,663.211853 928.048584,657.259460 
	C928.940613,659.221130 929.339478,660.098206 929.851562,661.330566 
z"/>
<path fill="#F7F7F7" opacity="1.000000" stroke="none" 
	d="
M424.357788,671.643921 
	C423.897827,672.634277 423.351990,673.343872 422.651215,673.829956 
	C422.315094,674.063171 421.685883,673.875488 421.189423,673.875610 
	C418.714417,673.876282 416.239410,673.875977 412.926300,673.875977 
	C414.891968,668.455322 416.696869,663.477844 418.501801,658.500366 
	C418.869751,658.425659 419.237671,658.350891 419.605591,658.276123 
	C421.139832,662.607849 422.674042,666.939575 424.357788,671.643921 
z"/>
<path fill="#F7F7F7" opacity="1.000000" stroke="none" 
	d="
M814.820923,661.972229 
	C810.428101,662.642456 806.375732,663.173218 802.307068,663.506226 
	C801.770569,663.550049 800.668579,662.604858 800.647278,662.084167 
	C800.484314,658.101318 800.503052,654.110168 800.531494,650.122009 
	C800.534607,649.691589 800.996399,648.874939 801.184204,648.892395 
	C805.826660,649.325989 810.878296,648.874329 814.977844,650.631409 
	C818.981567,652.347473 818.573547,657.021973 814.820923,661.972229 
z"/>
<path fill="#F7F7F7" opacity="1.000000" stroke="none" 
	d="
M347.031342,663.650208 
	C345.136810,663.553467 343.691467,663.457092 342.117767,663.352112 
	C342.117767,658.328735 342.117767,653.704468 342.117767,648.517517 
	C345.517792,648.517517 348.793945,648.296814 352.028076,648.571228 
	C356.457550,648.947083 358.967133,651.526611 359.046204,656.066833 
	C359.121246,660.376892 356.172668,663.263489 351.465759,663.625732 
	C350.144531,663.727356 348.809326,663.647339 347.031342,663.650208 
z"/>
<path fill="#FFFCED" opacity="1.000000" stroke="none" 
	d="
M1105.754395,789.027710 
	C1105.757690,787.372375 1105.584473,786.177673 1105.800537,785.057983 
	C1106.250244,782.725098 1103.930420,779.088196 1108.956055,778.839539 
	C1115.389648,778.521179 1117.229980,779.378784 1117.500610,784.816040 
	C1117.854370,791.923401 1117.881470,799.075378 1117.515503,806.180664 
	C1117.257446,811.191101 1111.607422,814.083313 1107.240601,811.662598 
	C1106.336182,811.161316 1105.858887,809.219543 1105.828003,807.926331 
	C1105.681274,801.794556 1105.757446,795.657532 1105.754395,789.027710 
z"/>
<path fill="#FFFCED" opacity="1.000000" stroke="none" 
	d="
M432.476410,787.266724 
	C429.792023,792.221069 425.618896,790.756165 421.345490,790.651184 
	C421.345490,786.836609 421.345490,783.173218 421.345490,779.535706 
	C430.659485,777.720032 432.964355,779.254395 432.476410,787.266724 
z"/>
<path fill="#FFFCED" opacity="1.000000" stroke="none" 
	d="
M597.842041,785.895874 
	C597.837708,783.489136 597.837708,781.549500 597.837708,779.749268 
	C605.591492,777.875610 608.831421,779.002319 609.534851,783.491760 
	C610.189270,787.668335 608.253601,790.515015 604.206238,790.801331 
	C601.068542,791.023315 597.068848,791.968689 597.842041,785.895874 
z"/>
<path fill="#FFFCED" opacity="1.000000" stroke="none" 
	d="
M740.992188,797.961304 
	C740.993774,799.617432 740.997681,800.782349 740.995544,801.947205 
	C740.977722,811.647522 739.632263,812.810181 729.421997,811.556702 
	C729.421997,800.913940 729.421997,790.217896 729.421997,779.554993 
	C739.150635,777.602661 740.979736,779.041931 740.990295,788.483826 
	C740.993713,791.479187 740.991455,794.474609 740.992188,797.961304 
z"/>
</svg>