<svg version="1.1" id="Layer_1" xmlns="http://www.w3.org/2000/svg" xmlns:xlink="http://www.w3.org/1999/xlink" x="0px" y="0px"
	 width="100%" viewBox="0 0 1080 864" enable-background="new 0 0 1080 864" xml:space="preserve">
<path fill="#000000" opacity="1.000000" stroke="none" 
	d="
M582.000000,865.000000 
	C388.024872,865.000000 194.549728,865.000000 1.037299,865.000000 
	C1.037299,577.061890 1.037299,289.123749 1.037299,1.092815 
	C360.891815,1.092815 720.783691,1.092815 1080.837769,1.092815 
	C1080.837769,288.999939 1080.837769,576.999939 1080.837769,865.000000 
	C914.790344,865.000000 748.645203,865.000000 582.000000,865.000000 
M311.586426,690.864441 
	C312.108124,690.265015 312.629852,689.665527 313.833344,688.709778 
	C314.547089,686.245850 315.811920,683.796265 315.876831,681.315369 
	C316.124146,671.861755 316.089935,662.395508 315.867340,652.940918 
	C315.836517,651.631775 314.159485,650.361328 313.244568,649.072998 
	C311.929626,651.504578 306.387848,647.408997 307.004639,653.953430 
	C306.999817,662.601746 306.955109,671.250305 307.012482,679.898254 
	C307.031616,682.780151 306.113373,684.946899 302.972748,684.924133 
	C299.841980,684.901489 298.941315,682.730774 298.972351,679.847046 
	C299.051147,672.530029 299.006439,665.211609 299.003143,657.893799 
	C298.999329,649.468750 298.995239,649.464600 290.989807,650.090454 
	C290.732819,650.110535 290.497589,650.408325 289.950653,650.783508 
	C289.950653,660.038696 289.905090,669.501038 289.963989,678.962646 
	C290.018524,687.726807 294.280640,691.642090 303.213989,691.403076 
	C304.804169,691.360474 306.403595,691.663025 308.655792,691.944885 
	C309.431854,691.568481 310.207916,691.192139 311.586426,690.864441 
M205.305084,649.998596 
	C203.406815,651.290894 200.471268,646.546265 199.010880,651.983582 
	C199.006943,661.263184 199.150177,670.547180 198.867645,679.818298 
	C198.814819,681.551636 197.270569,684.411682 196.030228,684.637207 
	C194.512543,684.913025 192.589890,682.961243 190.989197,681.050964 
	C190.996109,672.238586 190.886200,663.423767 191.069168,654.615051 
	C191.139450,651.231750 190.165268,649.556519 186.570221,649.949829 
	C185.153259,650.104858 183.705154,649.975281 182.002716,649.975281 
	C182.002716,660.920410 181.928040,671.367737 182.090103,681.811401 
	C182.112244,683.237488 183.315460,684.645264 184.027496,686.803833 
	C184.724411,688.048584 185.120499,689.700684 186.166275,690.473022 
	C193.844955,696.143616 203.590347,693.020874 206.973587,683.063782 
	C206.981583,673.422485 207.024765,663.781006 206.956787,654.140259 
	C206.947433,652.811157 206.387039,651.485962 205.305084,649.998596 
M815.519043,691.959351 
	C815.695312,691.916626 815.871582,691.873962 816.922424,691.970703 
	C818.512451,691.970703 820.102539,691.970703 822.039795,691.970703 
	C822.039795,685.541870 822.039795,679.665649 822.039795,673.789429 
	C824.362915,677.379395 826.081299,681.068176 827.356445,684.904236 
	C829.865540,692.452698 830.575500,692.951416 838.997437,691.360535 
	C838.997437,678.434265 839.032410,665.464355 838.912170,652.495911 
	C838.904785,651.702820 837.669556,650.921204 836.109924,649.985840 
	C834.176575,649.985840 832.243225,649.985840 829.870117,649.985840 
	C829.870117,656.638184 829.870117,662.770935 829.201843,668.646545 
	C828.447388,666.389465 827.962158,663.993042 826.881104,661.905090 
	C824.800781,657.886902 822.383240,654.043213 819.279602,649.980225 
	C817.577332,650.332520 815.875122,650.684875 814.029907,651.958801 
	C814.020569,663.787537 813.976868,675.616455 814.045532,687.444763 
	C814.054016,688.915283 814.657898,690.382324 815.519043,691.959351 
M872.146545,650.022156 
	C871.786316,650.607666 871.115051,651.191284 871.111633,651.778809 
	C871.039001,664.185669 871.018188,676.593018 871.076599,688.999817 
	C871.080994,689.935547 871.754883,690.868103 873.028687,691.955383 
	C879.635193,691.955383 886.241699,691.955383 892.800720,691.955383 
	C893.245361,684.056396 893.245361,684.054260 885.836182,684.017090 
	C883.923096,684.007446 882.009949,684.015625 880.200684,684.015625 
	C880.200684,680.662842 880.200684,678.050720 880.200684,675.021362 
	C884.172485,675.021362 887.921814,675.021362 892.190247,675.021362 
	C891.890991,672.006714 892.384399,667.702393 891.240234,667.210999 
	C887.966370,665.804871 884.027954,665.946289 880.260864,665.467651 
	C880.260864,663.408142 880.260864,661.351501 880.260864,658.975952 
	C883.513428,658.975952 886.509338,659.213501 889.435425,658.865051 
	C890.694458,658.715027 892.892761,657.172058 892.793762,656.569153 
	C892.440063,654.415833 894.970825,651.276062 890.109009,650.001404 
	C884.414062,650.052917 878.719116,650.104431 872.146545,650.022156 
M773.236145,650.656433 
	C773.205078,663.439392 773.174072,676.222351 772.989868,689.775635 
	C773.998230,690.461365 775.006653,691.147156 776.793518,691.973206 
	C778.192078,692.121521 779.590698,692.269836 781.830322,692.507324 
	C781.830322,679.272156 781.830322,666.119141 781.978516,652.107422 
	C781.411011,651.397217 780.891968,650.132690 780.267212,650.078125 
	C778.178467,649.895508 776.051880,650.145935 773.236145,650.656433 
M925.037964,663.952209 
	C925.065369,672.277222 925.092773,680.602234 924.976318,689.730164 
	C924.592773,692.397400 926.230957,692.177246 928.891846,691.970337 
	C932.532654,691.981384 936.177246,691.890625 939.813293,692.027405 
	C945.204712,692.230042 949.020874,689.557312 949.815369,684.599915 
	C950.870911,678.013855 950.576294,671.220337 951.048218,664.529053 
	C951.427002,659.158020 949.380371,655.068604 944.748901,651.225159 
	C938.293518,650.645447 931.838196,650.065735 925.171570,649.467041 
	C925.171570,654.769043 925.171570,658.898254 925.037964,663.952209 
M426.001526,471.746246 
	C426.678619,473.110809 427.355713,474.475372 428.956970,475.977966 
	C448.198029,475.977966 467.439087,475.977966 486.965454,475.977966 
	C486.965454,474.185547 486.965485,472.886749 486.965454,471.587982 
	C486.964447,414.851562 486.960785,358.115173 486.974731,301.378754 
	C486.975189,299.559998 487.156219,297.741302 487.807373,296.310577 
	C498.264923,302.464111 508.768829,308.540619 519.165405,314.795563 
	C527.504578,319.812653 535.713562,325.046173 544.023010,330.945251 
	C544.047058,331.451874 544.071045,331.958527 544.013855,333.321686 
	C544.040100,352.722595 544.066345,372.123474 544.042847,392.502869 
	C544.042847,396.262024 544.042847,400.021210 544.042847,404.147827 
	C567.080933,404.610291 587.660950,398.487518 607.004272,385.328461 
	C608.544678,384.514252 610.272766,383.930145 611.596375,382.850250 
	C624.829224,372.053925 635.630371,359.505402 643.714050,344.134338 
	C654.330383,323.947510 656.575806,302.794861 654.957642,280.713104 
	C654.681885,276.950897 654.992432,272.908997 653.700562,269.501160 
	C649.382446,258.110962 645.908875,246.447220 639.220947,235.904968 
	C632.460083,225.247742 624.487610,215.716660 614.741455,208.194229 
	C605.910767,201.378403 595.834656,195.829437 585.624084,191.244263 
	C575.116150,186.525589 563.619080,184.100891 551.968933,184.070923 
	C510.986023,183.965515 470.002441,184.110046 428.198730,184.036438 
	C427.461853,185.272766 426.145325,186.484375 426.091309,187.749847 
	C425.888885,192.494019 426.098877,197.255768 426.016418,202.938919 
	C426.011414,283.937988 426.002350,364.937042 426.007629,445.936127 
	C426.008179,454.266602 426.095154,462.597046 426.001526,471.746246 
M565.947876,659.017822 
	C566.612610,659.021973 567.277283,659.026306 567.942017,659.030396 
	C575.135925,659.075195 575.143066,659.074951 574.977417,652.054016 
	C574.963135,651.448120 574.771423,650.846497 574.675537,650.316711 
	C567.669128,650.316711 560.954163,650.316711 553.817261,650.316711 
	C553.817261,664.165894 553.817261,677.680115 553.817261,691.823303 
	C555.164001,691.823303 556.571533,691.823303 558.904419,691.974304 
	C564.101013,691.974304 569.297607,691.974304 574.540710,691.974304 
	C574.205933,688.712158 573.982300,686.533508 573.717041,683.948730 
	C569.889709,683.948730 566.135803,683.948730 562.265259,683.948730 
	C562.265259,680.800171 562.265259,678.078552 562.265259,674.953430 
	C566.260498,674.953430 570.009827,674.953430 574.135742,674.953430 
	C573.944763,672.101501 574.488647,667.956909 573.490784,667.544800 
	C570.034485,666.117126 566.041931,665.987488 562.118958,665.341797 
	C562.118958,663.177795 562.118958,660.898804 562.118958,658.608337 
	C563.173706,658.702698 564.120544,658.787415 565.947876,659.017822 
M141.046219,674.998047 
	C141.053574,669.908936 141.177734,664.816284 141.023788,659.732056 
	C140.933670,656.756287 140.399933,653.793945 139.575485,650.135071 
	C136.827591,650.135071 134.079697,650.135071 130.994141,650.135071 
	C130.994141,663.659912 130.935196,676.732422 131.113190,689.801758 
	C131.126526,690.780151 132.809540,692.539734 133.757782,692.568420 
	C139.130966,692.731018 144.524994,692.604248 149.891296,692.256958 
	C150.968353,692.187317 152.673035,690.875427 152.858078,689.902283 
	C153.566391,686.177307 152.897400,683.261963 147.865387,683.953552 
	C145.442749,684.286499 142.936523,684.010986 140.874969,684.010986 
	C140.874969,681.083923 140.874969,678.492554 141.046219,674.998047 
M720.096130,650.064209 
	C719.730530,650.855225 719.050049,651.644714 719.046204,652.437500 
	C718.985168,665.086792 718.996765,677.736572 719.052856,690.385986 
	C719.056030,691.101257 719.587830,691.814148 719.825073,692.407043 
	C722.630249,692.185791 725.148743,691.987183 728.069031,691.756897 
	C728.069031,686.257690 728.069031,680.833374 728.069031,674.970825 
	C731.874817,674.970825 735.276123,674.970825 738.785339,674.970825 
	C738.785339,671.774170 738.785339,669.039429 738.785339,665.880859 
	C735.147949,665.880859 731.726501,665.880859 728.324585,665.880859 
	C728.324585,663.392334 728.324585,661.337769 728.324585,659.464111 
	C732.135132,658.985046 735.615356,658.547546 739.760925,657.717773 
	C742.286560,652.403442 740.938171,649.974060 735.408020,649.988098 
	C730.591370,650.000366 725.774902,650.096069 720.096130,650.064209 
M401.041229,653.792603 
	C401.298584,654.706177 401.485779,655.646606 401.824127,656.529114 
	C405.310944,665.623962 408.994690,674.658203 407.990723,684.752197 
	C407.765808,687.013611 407.957703,689.316589 407.957703,691.713989 
	C411.219482,691.713989 413.941711,691.713989 417.004150,691.713989 
	C417.004150,688.797119 416.910461,686.157349 417.026917,683.526978 
	C417.185974,679.934448 416.941803,676.194458 417.875122,672.793396 
	C419.703491,666.130737 422.059265,659.594788 424.530334,653.133972 
	C425.830658,649.734253 423.224640,648.935608 421.576294,649.173950 
	C418.698975,649.590027 415.001709,649.519226 414.852539,654.398438 
	C414.762512,657.342102 413.287933,660.243347 412.259888,663.765259 
	C411.714508,660.077148 411.263489,657.027100 410.758514,653.192688 
	C410.092102,648.162415 405.230621,650.983093 402.930634,649.009949 
	C402.354095,650.345093 401.777527,651.680237 401.041229,653.792603 
M681.082031,684.031311 
	C678.831909,684.031311 676.581726,684.031311 674.290771,684.031311 
	C674.290771,680.729919 674.290771,678.017395 674.290771,675.011841 
	C676.197388,675.011841 677.822388,675.011841 679.447388,675.011841 
	C681.205627,675.011841 682.963806,675.011841 684.660034,675.011841 
	C685.468445,666.006165 685.468445,666.007324 677.097168,665.989746 
	C676.106018,665.987671 675.114868,665.965332 674.010498,665.058228 
	C674.010498,663.136902 674.010498,661.215576 674.010498,659.064453 
	C677.374023,659.064453 680.289124,659.542725 682.920227,658.884949 
	C684.494751,658.491272 686.368469,656.489014 686.730835,654.896545 
	C687.047852,653.503418 685.542358,650.317810 684.667725,650.252319 
	C678.462646,649.787598 672.212769,649.922180 665.238159,650.349121 
	C665.238159,664.327148 665.238159,678.305115 665.238159,691.820251 
	C671.928406,691.820251 677.953064,691.820251 684.756226,691.949951 
	C688.303467,690.835571 687.174255,688.020142 686.291016,686.106628 
	C685.792480,685.026489 683.473145,684.786865 681.082031,684.031311 
M610.924805,691.973145 
	C614.737976,691.981689 618.551636,692.028870 622.364258,691.989136 
	C627.383850,691.936890 631.477844,689.421204 631.901001,684.646484 
	C632.660645,676.074402 632.751099,667.330505 631.865479,658.788635 
	C631.571594,655.953796 627.421814,653.518738 624.582092,650.167664 
	C620.771729,650.092041 616.769226,650.725342 613.200623,649.757874 
	C608.927307,648.599426 607.972107,649.834778 607.956238,653.725159 
	C607.907043,665.793884 607.663086,677.861938 607.659790,689.930298 
	C607.659607,690.561462 609.185913,691.193054 610.924805,691.973145 
M370.874664,691.973511 
	C371.550995,691.680969 372.822968,691.372620 372.815643,691.098328 
	C372.672760,685.731506 372.380890,680.368652 372.018433,674.262329 
	C370.571686,671.711243 371.127136,669.282166 372.064209,666.648193 
	C374.582886,659.568359 372.085968,654.218018 364.555328,650.181030 
	C359.355347,650.171875 354.155365,650.162659 348.175049,650.347046 
	C347.805054,650.877747 347.115479,651.406250 347.111969,651.939392 
	C347.027344,664.725952 346.965607,677.513550 347.126068,690.298218 
	C347.135040,691.013367 349.016479,691.879272 350.160553,692.346313 
	C350.959717,692.672546 352.083435,692.186890 352.897278,692.496887 
	C356.264954,693.779846 357.034821,692.169434 356.987000,689.207458 
	C356.912476,684.591614 356.967285,679.973816 356.967285,675.402893 
	C363.783569,674.802734 363.999084,674.990540 363.986267,681.004089 
	C363.978546,684.612915 363.984833,688.221741 363.984833,691.829041 
	C366.376831,691.829041 368.190704,691.829041 370.874664,691.973511 
M411.257935,593.939392 
	C415.053131,594.494324 416.144714,592.731506 416.054443,589.097778 
	C415.847504,580.767090 415.988953,572.427612 415.988953,563.054016 
	C421.986786,572.122803 427.896484,579.804138 432.347870,588.253784 
	C435.067444,593.416077 438.322968,594.225281 443.356110,594.194885 
	C447.712158,594.168579 449.135162,592.881958 449.082703,588.486877 
	C448.876099,571.177795 449.003723,553.864685 448.984924,536.553101 
	C448.983704,535.448853 448.792389,534.344788 448.705566,533.413147 
	C443.311096,533.413147 438.257751,533.413147 432.624481,533.413147 
	C432.624481,541.942627 432.624481,550.070984 432.624481,559.647827 
	C427.028259,550.875122 422.310760,543.408508 417.494843,536.005920 
	C416.756653,534.871155 415.614532,533.255493 414.574066,533.188721 
	C409.842133,532.884949 405.079773,533.055542 400.531738,533.055542 
	C400.257263,534.098389 400.102722,534.412598 400.102020,534.727234 
	C400.065948,551.039246 399.985962,567.351501 400.037292,583.663269 
	C400.075531,595.816223 398.574127,593.733337 411.257935,593.939392 
M597.043579,590.511963 
	C601.667908,592.001709 606.205017,594.336670 610.932739,594.824890 
	C625.925171,596.372925 645.159180,580.638184 643.284851,561.375488 
	C641.580200,543.856262 628.067627,532.060120 612.052917,532.028259 
	C598.844727,532.001953 585.920105,541.364868 582.046265,555.251892 
	C578.265930,568.803589 584.923950,584.453003 597.043579,590.511963 
M340.160675,547.519836 
	C338.093964,553.003845 336.009735,558.481384 333.964630,563.973450 
	C330.736328,572.642883 327.421814,581.284546 324.485260,590.052307 
	C324.172302,590.986755 326.006348,593.708069 327.063232,593.839355 
	C330.660736,594.286438 334.368500,594.098206 338.006409,593.806274 
	C339.033264,593.723877 340.656494,592.593201 340.831360,591.710571 
	C342.274109,584.428955 347.053406,582.938721 353.525146,583.789551 
	C355.650940,584.069031 357.920593,583.497620 359.979523,583.960388 
	C361.443787,584.289429 363.605530,585.507202 363.839630,586.657410 
	C365.168732,593.186951 369.081604,595.090454 375.181152,593.964905 
	C376.146118,593.786865 377.172302,593.938171 378.170166,593.940979 
	C384.597595,593.959167 384.977661,593.341858 382.365631,587.670898 
	C381.142548,585.015442 380.049805,582.291687 379.046783,579.544556 
	C373.675385,564.833496 368.382935,550.093323 362.938354,535.409607 
	C362.574493,534.428223 361.215820,533.212036 360.259949,533.157654 
	C355.950073,532.912537 351.610962,532.908386 347.300629,533.147400 
	C346.298218,533.203003 344.874939,534.358459 344.491058,535.338989 
	C343.014587,539.109863 341.881531,543.015137 340.160675,547.519836 
M812.855835,592.559570 
	C809.856750,583.606873 806.927002,574.630127 803.838379,565.708374 
	C800.958374,557.389343 797.995361,549.096313 794.885742,540.861023 
	C793.872803,538.178528 792.682251,533.897888 790.879883,533.501709 
	C786.121094,532.455872 780.874084,532.557434 776.056213,533.458069 
	C774.450073,533.758362 773.305054,537.772217 772.376465,540.248596 
	C766.103516,556.977722 759.919617,573.740601 753.825623,590.535522 
	C753.521667,591.372986 754.268433,593.506775 754.611938,593.526306 
	C759.578613,593.808777 764.770874,594.672363 769.433594,593.502380 
	C771.284790,593.037720 771.962769,587.922974 773.197632,584.934753 
	C773.309143,584.664978 773.588318,584.464478 773.944702,584.052612 
	C778.502075,584.052612 783.176086,584.337219 787.797974,583.968201 
	C791.976562,583.634705 794.207458,584.885315 795.128296,589.165833 
	C795.500427,590.895447 797.336609,593.488464 798.695618,593.612244 
	C803.261108,594.027954 807.911804,593.508728 812.855835,592.559570 
M509.950653,544.291992 
	C509.942627,542.460022 509.711395,540.595947 509.969818,538.802368 
	C510.653046,534.061279 508.616089,532.689270 504.070068,532.931335 
	C497.759399,533.267456 491.417328,533.013123 485.088684,533.012207 
	C480.498108,533.011597 475.907562,533.012146 470.973846,533.012146 
	C470.973846,552.818054 470.899445,571.780823 471.165558,590.738770 
	C471.180908,591.834106 473.920166,593.736450 475.467865,593.817932 
	C481.944550,594.158997 488.450256,593.945984 494.945343,593.940735 
	C499.868927,593.936768 504.792542,593.940002 509.572510,593.940002 
	C509.572510,588.212524 509.572510,583.313721 509.572510,577.882385 
	C501.900909,577.882385 494.649536,577.882385 487.254395,577.882385 
	C487.254395,575.075928 487.254395,572.822266 487.254395,569.958496 
	C494.208954,569.958496 500.929413,569.958496 507.556061,569.958496 
	C507.556061,564.630615 507.556061,559.922119 507.556061,554.769043 
	C500.516571,554.769043 493.919586,554.769043 487.275818,554.769043 
	C487.275818,552.367249 487.275818,550.442993 487.275818,547.989563 
	C493.651398,547.989563 499.773041,548.012207 505.894318,547.976257 
	C507.806427,547.965027 510.190033,548.488892 509.950653,544.291992 
M302.704132,573.753601 
	C318.928223,568.215088 323.445831,549.882751 310.175171,537.934570 
	C307.439117,535.471130 303.353119,533.607422 299.710693,533.240417 
	C292.462189,532.510254 285.084686,533.168518 277.770294,532.939941 
	C274.061401,532.824036 272.862000,534.131287 272.900146,537.816528 
	C273.053497,552.623962 272.951813,567.434082 272.948029,582.243164 
	C272.945068,593.787537 272.956757,593.535828 284.257507,593.954041 
	C289.144562,594.134949 290.351868,592.300781 290.083466,587.903076 
	C289.805145,583.342102 290.021545,578.750977 290.021545,573.939575 
	C294.546204,573.939575 298.200317,573.939575 302.704132,573.753601 
M703.019836,545.765442 
	C700.500854,538.511353 694.703918,534.266113 687.840576,533.257751 
	C679.861816,532.085632 671.570984,532.881958 663.427490,533.164612 
	C662.284058,533.204224 660.255371,535.168152 660.242432,536.260437 
	C660.029297,554.227295 660.014587,572.197754 660.185181,590.165283 
	C660.197510,591.459900 661.880859,593.735535 662.963257,593.846985 
	C667.168945,594.280212 671.445679,594.023376 676.112427,594.023376 
	C676.112427,587.053162 676.112427,580.793274 676.112427,574.180359 
	C684.217957,573.688293 692.151978,574.976074 698.646606,568.374817 
	C703.374573,563.569214 705.871155,555.995605 703.019836,545.765442 
M529.997864,576.498474 
	C529.997864,582.238892 529.997864,587.979309 529.997864,594.052612 
	C539.813904,594.052612 548.787964,594.052612 557.762085,594.052612 
	C568.955872,594.052612 568.756897,594.046326 569.111511,582.768738 
	C569.235840,578.814453 567.777283,577.864929 564.287170,577.947754 
	C558.356445,578.088623 552.419861,577.986572 545.834900,577.986572 
	C545.834900,562.713501 545.834900,548.021912 545.834900,533.338501 
	C540.260986,533.338501 535.354797,533.338501 529.997864,533.338501 
	C529.997864,547.613831 529.997864,561.556519 529.997864,576.498474 
M720.947388,562.500000 
	C720.947388,568.978821 720.947388,575.457581 720.947388,581.936401 
	C720.947388,593.937073 720.951660,593.774475 733.050720,594.094055 
	C737.199219,594.203735 738.090759,592.604858 738.058960,588.859253 
	C737.915161,571.916260 738.005859,554.971313 737.982239,538.027100 
	C737.979980,536.448242 737.768311,534.869629 737.633301,533.006592 
	C733.244568,533.006592 729.429626,533.143555 725.629395,532.965759 
	C722.222107,532.806396 720.877136,534.056335 720.952820,537.580444 
	C721.124146,545.549927 720.969421,553.526367 720.947388,562.500000 
M521.992798,681.621765 
	C521.651428,679.056458 521.997131,676.088989 520.791626,674.029541 
	C519.342529,671.554077 519.376343,669.997681 520.668945,667.552063 
	C524.138000,660.988831 520.934448,652.372009 513.820190,650.585205 
	C508.543915,649.260071 502.833649,649.662964 497.018463,649.276306 
	C497.018463,663.580078 496.956482,676.561890 497.135193,689.540405 
	C497.149628,690.587036 498.742004,692.385986 499.732941,692.482544 
	C501.732849,692.677429 503.823456,691.941467 505.484009,691.656799 
	C505.484009,686.108032 505.484009,680.757263 505.484009,675.390320 
	C512.745789,674.573669 512.949585,674.737183 512.996826,681.551575 
	C513.008423,683.217468 513.300659,684.950256 512.947815,686.537537 
	C511.663330,692.315979 516.239746,692.390564 519.430847,692.598755 
	C523.543213,692.867065 521.540527,689.102478 521.937439,687.047058 
	C522.216675,685.601501 521.992920,684.058777 521.992798,681.621765 
M239.457794,659.910889 
	C247.415039,671.064148 238.103409,681.039307 237.175339,691.141968 
	C246.739700,695.943542 246.634369,687.035339 249.573898,682.103943 
	C250.261017,685.757996 250.849335,688.886536 251.419083,691.916382 
	C254.798462,691.916382 257.892761,691.916382 261.481140,691.916382 
	C259.818359,686.915283 258.577118,682.596008 256.946777,678.429016 
	C254.973999,673.386597 254.235504,668.621033 256.888947,663.450806 
	C258.481567,660.347473 259.120422,656.725525 259.986023,653.285889 
	C261.030884,649.134033 258.678650,648.625916 255.363190,649.211914 
	C249.481445,650.251404 250.896774,655.534363 249.402237,659.991577 
	C247.868134,656.272034 246.606903,653.214050 245.427231,650.353821 
	C242.561218,650.353821 239.839600,650.353821 236.851974,650.353821 
	C237.679108,653.574097 238.397156,656.369690 239.457794,659.910889 
z"/>
<path fill="#F9AB0E" opacity="1.000000" stroke="none" 
	d="
M429.019104,184.159729 
	C470.002441,184.110046 510.986023,183.965515 551.968933,184.070923 
	C563.619080,184.100891 575.116150,186.525589 585.624084,191.244263 
	C595.834656,195.829437 605.910767,201.378403 614.741455,208.194229 
	C624.487610,215.716660 632.460083,225.247742 639.220947,235.904968 
	C645.908875,246.447220 649.382446,258.110962 653.700562,269.501160 
	C654.992432,272.908997 654.681885,276.950897 654.957642,280.713104 
	C656.575806,302.794861 654.330383,323.947510 643.714050,344.134338 
	C635.630371,359.505402 624.829224,372.053925 611.596375,382.850250 
	C610.272766,383.930145 608.544678,384.514252 606.434204,385.273010 
	C605.533691,383.129059 604.921021,381.041260 604.915833,378.951965 
	C604.851318,352.953705 604.890381,326.955200 604.847473,300.956879 
	C604.843994,298.837616 604.435120,296.719055 604.041870,294.322052 
	C603.518799,293.693787 603.222778,293.252625 602.810303,293.006622 
	C584.378113,282.010925 565.958374,270.993561 547.435120,260.153229 
	C546.382812,259.537415 544.204834,259.927124 543.001526,260.625488 
	C525.587891,270.732056 508.221375,280.921326 490.946655,291.262970 
	C489.355804,292.215332 488.467621,294.341522 487.253113,295.922607 
	C487.156219,297.741302 486.975189,299.559998 486.974731,301.378754 
	C486.960785,358.115173 486.964447,414.851562 486.965454,471.587982 
	C486.965485,472.886749 486.965454,474.185547 486.965454,475.977966 
	C467.439087,475.977966 448.198029,475.977966 428.488770,475.450500 
	C428.014221,380.462006 428.000183,286.001007 428.044128,191.540009 
	C428.045288,189.079773 428.679901,186.619827 429.019104,184.159729 
z"/>
<path fill="#39BBBF" opacity="1.000000" stroke="none" 
	d="
M604.214600,294.600189 
	C604.435120,296.719055 604.843994,298.837616 604.847473,300.956879 
	C604.890381,326.955200 604.851318,352.953705 604.915833,378.951965 
	C604.921021,381.041260 605.533691,383.129059 606.119507,385.558807 
	C587.660950,398.487518 567.080933,404.610291 544.042847,404.147827 
	C544.042847,400.021210 544.042847,396.262024 544.378418,391.780396 
	C544.796997,372.082001 544.887268,353.106049 544.926086,334.130035 
	C544.927246,333.575623 544.384338,333.020142 544.095093,332.465149 
	C544.071045,331.958527 544.047058,331.451874 544.239380,330.304810 
	C547.852783,327.711548 551.266907,325.787811 554.643982,323.801025 
	C571.172974,314.076660 587.692017,304.335449 604.214600,294.600189 
z"/>
<path fill="#EF461E" opacity="1.000000" stroke="none" 
	d="
M604.041870,294.322052 
	C587.692017,304.335449 571.172974,314.076660 554.643982,323.801025 
	C551.266907,325.787811 547.852783,327.711548 544.218018,329.924011 
	C535.713562,325.046173 527.504578,319.812653 519.165405,314.795563 
	C508.768829,308.540619 498.264923,302.464111 487.530273,296.116577 
	C488.467621,294.341522 489.355804,292.215332 490.946655,291.262970 
	C508.221375,280.921326 525.587891,270.732056 543.001526,260.625488 
	C544.204834,259.927124 546.382812,259.537415 547.435120,260.153229 
	C565.958374,270.993561 584.378113,282.010925 602.810303,293.006622 
	C603.222778,293.252625 603.518799,293.693787 604.041870,294.322052 
z"/>
<path fill="#727272" opacity="1.000000" stroke="none" 
	d="
M410.794312,593.939636 
	C398.574127,593.733337 400.075531,595.816223 400.037292,583.663269 
	C399.985962,567.351501 400.065948,551.039246 400.102020,534.727234 
	C400.102722,534.412598 400.257263,534.098389 400.531738,533.055542 
	C405.079773,533.055542 409.842133,532.884949 414.574066,533.188721 
	C415.614532,533.255493 416.756653,534.871155 417.494843,536.005920 
	C422.310760,543.408508 427.028259,550.875122 432.624481,559.647827 
	C432.624481,550.070984 432.624481,541.942627 432.624481,533.413147 
	C438.257751,533.413147 443.311096,533.413147 448.705566,533.413147 
	C448.792389,534.344788 448.983704,535.448853 448.984924,536.553101 
	C449.003723,553.864685 448.876099,571.177795 449.082703,588.486877 
	C449.135162,592.881958 447.712158,594.168579 443.356110,594.194885 
	C438.322968,594.225281 435.067444,593.416077 432.347870,588.253784 
	C427.896484,579.804138 421.986786,572.122803 415.988953,563.054016 
	C415.988953,572.427612 415.847504,580.767090 416.054443,589.097778 
	C416.144714,592.731506 415.053131,594.494324 410.794312,593.939636 
z"/>
<path fill="#727272" opacity="1.000000" stroke="none" 
	d="
M596.723389,590.311157 
	C584.923950,584.453003 578.265930,568.803589 582.046265,555.251892 
	C585.920105,541.364868 598.844727,532.001953 612.052917,532.028259 
	C628.067627,532.060120 641.580200,543.856262 643.284851,561.375488 
	C645.159180,580.638184 625.925171,596.372925 610.932739,594.824890 
	C606.205017,594.336670 601.667908,592.001709 596.723389,590.311157 
M627.064087,562.621338 
	C627.146179,552.844849 618.430298,548.240845 611.307556,548.237366 
	C602.928894,548.233215 598.313843,555.250488 598.023804,565.359863 
	C597.813171,572.700623 605.133484,578.074280 611.863708,578.709167 
	C619.535645,579.432739 626.866943,571.609131 627.064087,562.621338 
z"/>
<path fill="#727272" opacity="1.000000" stroke="none" 
	d="
M340.390564,547.195068 
	C341.881531,543.015137 343.014587,539.109863 344.491058,535.338989 
	C344.874939,534.358459 346.298218,533.203003 347.300629,533.147400 
	C351.610962,532.908386 355.950073,532.912537 360.259949,533.157654 
	C361.215820,533.212036 362.574493,534.428223 362.938354,535.409607 
	C368.382935,550.093323 373.675385,564.833496 379.046783,579.544556 
	C380.049805,582.291687 381.142548,585.015442 382.365631,587.670898 
	C384.977661,593.341858 384.597595,593.959167 378.170166,593.940979 
	C377.172302,593.938171 376.146118,593.786865 375.181152,593.964905 
	C369.081604,595.090454 365.168732,593.186951 363.839630,586.657410 
	C363.605530,585.507202 361.443787,584.289429 359.979523,583.960388 
	C357.920593,583.497620 355.650940,584.069031 353.525146,583.789551 
	C347.053406,582.938721 342.274109,584.428955 340.831360,591.710571 
	C340.656494,592.593201 339.033264,593.723877 338.006409,593.806274 
	C334.368500,594.098206 330.660736,594.286438 327.063232,593.839355 
	C326.006348,593.708069 324.172302,590.986755 324.485260,590.052307 
	C327.421814,581.284546 330.736328,572.642883 333.964630,563.973450 
	C336.009735,558.481384 338.093964,553.003845 340.390564,547.195068 
M356.861786,565.502686 
	C355.812469,563.194641 354.763123,560.886597 353.420349,557.933044 
	C352.297516,561.670593 351.399139,564.661011 350.017548,569.259949 
	C353.260559,567.858398 355.147614,567.042908 356.861786,565.502686 
z"/>
<path fill="#727272" opacity="1.000000" stroke="none" 
	d="
M812.692871,592.953430 
	C807.911804,593.508728 803.261108,594.027954 798.695618,593.612244 
	C797.336609,593.488464 795.500427,590.895447 795.128296,589.165833 
	C794.207458,584.885315 791.976562,583.634705 787.797974,583.968201 
	C783.176086,584.337219 778.502075,584.052612 773.944702,584.052612 
	C773.588318,584.464478 773.309143,584.664978 773.197632,584.934753 
	C771.962769,587.922974 771.284790,593.037720 769.433594,593.502380 
	C764.770874,594.672363 759.578613,593.808777 754.611938,593.526306 
	C754.268433,593.506775 753.521667,591.372986 753.825623,590.535522 
	C759.919617,573.740601 766.103516,556.977722 772.376465,540.248596 
	C773.305054,537.772217 774.450073,533.758362 776.056213,533.458069 
	C780.874084,532.557434 786.121094,532.455872 790.879883,533.501709 
	C792.682251,533.897888 793.872803,538.178528 794.885742,540.861023 
	C797.995361,549.096313 800.958374,557.389343 803.838379,565.708374 
	C806.927002,574.630127 809.856750,583.606873 812.692871,592.953430 
M780.931824,564.222046 
	C780.453247,565.348328 779.974609,566.474609 779.457458,567.691650 
	C781.997986,567.691650 784.164734,567.691650 786.350464,567.691650 
	C785.371521,564.198364 784.475220,561.000122 783.511108,557.559692 
	C782.622070,559.645935 781.806152,561.560608 780.931824,564.222046 
z"/>
<path fill="#727272" opacity="1.000000" stroke="none" 
	d="
M509.948181,544.760254 
	C510.190033,548.488892 507.806427,547.965027 505.894318,547.976257 
	C499.773041,548.012207 493.651398,547.989563 487.275818,547.989563 
	C487.275818,550.442993 487.275818,552.367249 487.275818,554.769043 
	C493.919586,554.769043 500.516571,554.769043 507.556061,554.769043 
	C507.556061,559.922119 507.556061,564.630615 507.556061,569.958496 
	C500.929413,569.958496 494.208954,569.958496 487.254395,569.958496 
	C487.254395,572.822266 487.254395,575.075928 487.254395,577.882385 
	C494.649536,577.882385 501.900909,577.882385 509.572510,577.882385 
	C509.572510,583.313721 509.572510,588.212524 509.572510,593.940002 
	C504.792542,593.940002 499.868927,593.936768 494.945343,593.940735 
	C488.450256,593.945984 481.944550,594.158997 475.467865,593.817932 
	C473.920166,593.736450 471.180908,591.834106 471.165558,590.738770 
	C470.899445,571.780823 470.973846,552.818054 470.973846,533.012146 
	C475.907562,533.012146 480.498108,533.011597 485.088684,533.012207 
	C491.417328,533.013123 497.759399,533.267456 504.070068,532.931335 
	C508.616089,532.689270 510.653046,534.061279 509.969818,538.802368 
	C509.711395,540.595947 509.942627,542.460022 509.948181,544.760254 
z"/>
<path fill="#727272" opacity="1.000000" stroke="none" 
	d="
M302.279266,573.846558 
	C298.200317,573.939575 294.546204,573.939575 290.021545,573.939575 
	C290.021545,578.750977 289.805145,583.342102 290.083466,587.903076 
	C290.351868,592.300781 289.144562,594.134949 284.257507,593.954041 
	C272.956757,593.535828 272.945068,593.787537 272.948029,582.243164 
	C272.951813,567.434082 273.053497,552.623962 272.900146,537.816528 
	C272.862000,534.131287 274.061401,532.824036 277.770294,532.939941 
	C285.084686,533.168518 292.462189,532.510254 299.710693,533.240417 
	C303.353119,533.607422 307.439117,535.471130 310.175171,537.934570 
	C323.445831,549.882751 318.928223,568.215088 302.279266,573.846558 
M290.069000,557.174622 
	C293.158752,560.906677 296.941864,559.320374 300.016174,557.715820 
	C301.304077,557.043701 302.335938,553.363831 301.656158,551.900818 
	C299.431671,547.113159 294.875366,547.753662 290.014130,548.325989 
	C290.014130,551.052002 290.014130,553.655212 290.069000,557.174622 
z"/>
<path fill="#727272" opacity="1.000000" stroke="none" 
	d="
M703.116882,546.158081 
	C705.871155,555.995605 703.374573,563.569214 698.646606,568.374817 
	C692.151978,574.976074 684.217957,573.688293 676.112427,574.180359 
	C676.112427,580.793274 676.112427,587.053162 676.112427,594.023376 
	C671.445679,594.023376 667.168945,594.280212 662.963257,593.846985 
	C661.880859,593.735535 660.197510,591.459900 660.185181,590.165283 
	C660.014587,572.197754 660.029297,554.227295 660.242432,536.260437 
	C660.255371,535.168152 662.284058,533.204224 663.427490,533.164612 
	C671.570984,532.881958 679.861816,532.085632 687.840576,533.257751 
	C694.703918,534.266113 700.500854,538.511353 703.116882,546.158081 
M686.875061,549.436951 
	C683.457764,548.804199 680.040466,548.171509 676.382324,547.494202 
	C676.382324,551.994934 676.382324,555.360413 676.382324,558.977112 
	C678.904053,558.977112 681.072388,559.196289 683.181091,558.934631 
	C688.737915,558.245178 690.336060,554.791138 686.875061,549.436951 
z"/>
<path fill="#727272" opacity="1.000000" stroke="none" 
	d="
M529.997864,575.998840 
	C529.997864,561.556519 529.997864,547.613831 529.997864,533.338501 
	C535.354797,533.338501 540.260986,533.338501 545.834900,533.338501 
	C545.834900,548.021912 545.834900,562.713501 545.834900,577.986572 
	C552.419861,577.986572 558.356445,578.088623 564.287170,577.947754 
	C567.777283,577.864929 569.235840,578.814453 569.111511,582.768738 
	C568.756897,594.046326 568.955872,594.052612 557.762085,594.052612 
	C548.787964,594.052612 539.813904,594.052612 529.997864,594.052612 
	C529.997864,587.979309 529.997864,582.238892 529.997864,575.998840 
z"/>
<path fill="#727272" opacity="1.000000" stroke="none" 
	d="
M720.947388,562.000000 
	C720.969421,553.526367 721.124146,545.549927 720.952820,537.580444 
	C720.877136,534.056335 722.222107,532.806396 725.629395,532.965759 
	C729.429626,533.143555 733.244568,533.006592 737.633301,533.006592 
	C737.768311,534.869629 737.979980,536.448242 737.982239,538.027100 
	C738.005859,554.971313 737.915161,571.916260 738.058960,588.859253 
	C738.090759,592.604858 737.199219,594.203735 733.050720,594.094055 
	C720.951660,593.774475 720.947388,593.937073 720.947388,581.936401 
	C720.947388,575.457581 720.947388,568.978821 720.947388,562.000000 
z"/>
<path fill="#F6AD16" opacity="1.000000" stroke="none" 
	d="
M521.993286,682.090576 
	C521.992920,684.058777 522.216675,685.601501 521.937439,687.047058 
	C521.540527,689.102478 523.543213,692.867065 519.430847,692.598755 
	C516.239746,692.390564 511.663330,692.315979 512.947815,686.537537 
	C513.300659,684.950256 513.008423,683.217468 512.996826,681.551575 
	C512.949585,674.737183 512.745789,674.573669 505.484009,675.390320 
	C505.484009,680.757263 505.484009,686.108032 505.484009,691.656799 
	C503.823456,691.941467 501.732849,692.677429 499.732941,692.482544 
	C498.742004,692.385986 497.149628,690.587036 497.135193,689.540405 
	C496.956482,676.561890 497.018463,663.580078 497.018463,649.276306 
	C502.833649,649.662964 508.543915,649.260071 513.820190,650.585205 
	C520.934448,652.372009 524.138000,660.988831 520.668945,667.552063 
	C519.376343,669.997681 519.342529,671.554077 520.791626,674.029541 
	C521.997131,676.088989 521.651428,679.056458 521.993286,682.090576 
M506.810730,665.923462 
	C513.382507,666.101929 513.425415,666.052307 512.495850,659.234009 
	C510.100739,659.234009 507.694397,659.234009 504.570831,659.234009 
	C505.126617,661.591187 505.587921,663.547668 506.810730,665.923462 
z"/>
<path fill="#F7AB10" opacity="1.000000" stroke="none" 
	d="
M365.011749,650.888855 
	C372.085968,654.218018 374.582886,659.568359 372.064209,666.648193 
	C371.127136,669.282166 370.571686,671.711243 371.736084,674.845581 
	C370.970673,680.895569 370.487610,686.362305 370.004578,691.829041 
	C368.190704,691.829041 366.376831,691.829041 363.984833,691.829041 
	C363.984833,688.221741 363.978546,684.612915 363.986267,681.004089 
	C363.999084,674.990540 363.783569,674.802734 356.967285,675.402893 
	C356.967285,679.973816 356.912476,684.591614 356.987000,689.207458 
	C357.034821,692.169434 356.264954,693.779846 352.897278,692.496887 
	C352.083435,692.186890 350.959717,692.672546 350.160553,692.346313 
	C349.016479,691.879272 347.135040,691.013367 347.126068,690.298218 
	C346.965607,677.513550 347.027344,664.725952 347.111969,651.939392 
	C347.115479,651.406250 347.805054,650.877747 348.750977,650.586304 
	C354.549408,652.275513 359.773254,653.395569 365.011749,650.888855 
M362.067749,665.941589 
	C362.622223,664.111572 364.165375,661.304077 363.524506,660.655884 
	C362.207642,659.323914 359.721771,659.147705 357.215118,658.332581 
	C357.215118,661.391541 357.215118,663.457642 357.215118,665.982605 
	C358.653687,665.982605 359.923157,665.982605 362.067749,665.941589 
z"/>
<path fill="#F9AB0E" opacity="1.000000" stroke="none" 
	d="
M837.005615,650.134216 
	C837.669556,650.921204 838.904785,651.702820 838.912170,652.495911 
	C839.032410,665.464355 838.997437,678.434265 838.997437,691.360535 
	C830.575500,692.951416 829.865540,692.452698 827.356445,684.904236 
	C826.081299,681.068176 824.362915,677.379395 822.039795,673.789429 
	C822.039795,679.665649 822.039795,685.541870 822.039795,691.970703 
	C820.102539,691.970703 818.512451,691.970703 816.487183,691.443054 
	C816.048157,680.668091 816.177063,670.418152 815.975281,660.174744 
	C815.894470,656.076538 816.042236,652.380066 820.105591,650.127197 
	C822.383240,654.043213 824.800781,657.886902 826.881104,661.905090 
	C827.962158,663.993042 828.447388,666.389465 829.570557,669.069092 
	C830.676941,671.444336 831.414612,673.396973 832.152222,675.349609 
	C833.006165,670.324890 833.167786,665.266113 832.955200,660.223206 
	C832.783691,656.154175 832.950256,652.417114 837.005615,650.134216 
z"/>
<path fill="#F6AD16" opacity="1.000000" stroke="none" 
	d="
M239.286499,659.538086 
	C238.397156,656.369690 237.679108,653.574097 236.851974,650.353821 
	C239.839600,650.353821 242.561218,650.353821 245.427231,650.353821 
	C246.606903,653.214050 247.868134,656.272034 249.402237,659.991577 
	C250.896774,655.534363 249.481445,650.251404 255.363190,649.211914 
	C258.678650,648.625916 261.030884,649.134033 259.986023,653.285889 
	C259.120422,656.725525 258.481567,660.347473 256.888947,663.450806 
	C254.235504,668.621033 254.973999,673.386597 256.946777,678.429016 
	C258.577118,682.596008 259.818359,686.915283 261.481140,691.916382 
	C257.892761,691.916382 254.798462,691.916382 251.419083,691.916382 
	C250.849335,688.886536 250.261017,685.757996 249.573898,682.103943 
	C246.634369,687.035339 246.739700,695.943542 237.175339,691.141968 
	C238.103409,681.039307 247.415039,671.064148 239.286499,659.538086 
z"/>
<path fill="#F7AB10" opacity="1.000000" stroke="none" 
	d="
M625.034912,650.900940 
	C627.421814,653.518738 631.571594,655.953796 631.865479,658.788635 
	C632.751099,667.330505 632.660645,676.074402 631.901001,684.646484 
	C631.477844,689.421204 627.383850,691.936890 622.364258,691.989136 
	C618.551636,692.028870 614.737976,691.981689 610.462891,691.441284 
	C610.001221,679.956360 610.218323,668.997009 609.903442,658.052979 
	C609.761475,653.116882 611.595398,651.642456 616.262512,651.910767 
	C619.157715,652.077209 622.108887,651.270691 625.034912,650.900940 
M624.003113,673.454163 
	C624.003601,671.298401 624.012024,669.142578 624.003235,666.986877 
	C623.972900,659.550659 623.970703,659.550354 617.028748,658.670593 
	C616.765259,658.637146 616.499451,658.621033 616.291931,658.602112 
	C616.291931,667.020325 616.291931,675.412842 616.291931,683.775696 
	C623.988220,684.344360 623.987854,684.344360 623.973267,676.915710 
	C623.971680,676.086548 623.976440,675.257446 624.003113,673.454163 
z"/>
<path fill="#F7AB10" opacity="1.000000" stroke="none" 
	d="
M945.138916,651.937866 
	C949.380371,655.068604 951.427002,659.158020 951.048218,664.529053 
	C950.576294,671.220337 950.870911,678.013855 949.815369,684.599915 
	C949.020874,689.557312 945.204712,692.230042 939.813293,692.027405 
	C936.177246,691.890625 932.532654,691.981384 928.436035,691.438843 
	C927.982300,680.105408 927.975586,669.303467 927.989868,658.501526 
	C927.998352,652.114807 928.279663,651.892822 934.798828,651.991760 
	C938.244507,652.044006 941.692139,651.960205 945.138916,651.937866 
M933.979797,664.635742 
	C933.979797,671.035400 933.979797,677.435059 933.979797,683.779724 
	C941.957703,684.299927 941.977112,684.282043 941.989746,676.792847 
	C941.995850,673.153748 942.002625,669.514587 942.003296,665.875488 
	C942.004700,658.504211 942.003052,658.504211 934.194519,659.384766 
	C934.124756,660.780457 934.052490,662.226685 933.979797,664.635742 
z"/>
<path fill="#F6AD16" opacity="1.000000" stroke="none" 
	d="
M307.998718,691.806274 
	C306.403595,691.663025 304.804169,691.360474 303.213989,691.403076 
	C294.280640,691.642090 290.018524,687.726807 289.963989,678.962646 
	C289.905090,669.501038 289.950653,660.038696 289.950653,650.783508 
	C290.497589,650.408325 290.732819,650.110535 290.989807,650.090454 
	C298.995239,649.464600 298.999329,649.468750 299.003143,657.893799 
	C299.006439,665.211609 299.051147,672.530029 298.972351,679.847046 
	C298.941315,682.730774 299.841980,684.901489 302.972748,684.924133 
	C306.113373,684.946899 307.031616,682.780151 307.012482,679.898254 
	C306.955109,671.250305 306.999817,662.601746 307.353943,653.604004 
	C309.222626,653.046936 310.742004,652.839233 313.104797,652.516235 
	C312.023651,664.934204 315.132263,677.096130 310.660461,689.031067 
	C309.548248,689.978271 308.773499,690.892273 307.998718,691.806274 
z"/>
<path fill="#F7AB10" opacity="1.000000" stroke="none" 
	d="
M891.047302,650.136353 
	C894.970825,651.276062 892.440063,654.415833 892.793762,656.569153 
	C892.892761,657.172058 890.694458,658.715027 889.435425,658.865051 
	C886.509338,659.213501 883.513428,658.975952 880.260864,658.975952 
	C880.260864,661.351501 880.260864,663.408142 880.260864,665.467651 
	C884.027954,665.946289 887.966370,665.804871 891.240234,667.210999 
	C892.384399,667.702393 891.890991,672.006714 892.190247,675.021362 
	C887.921814,675.021362 884.172485,675.021362 880.200684,675.021362 
	C880.200684,678.050720 880.200684,680.662842 880.200684,684.015625 
	C882.009949,684.015625 883.923096,684.007446 885.836182,684.017090 
	C893.245361,684.054260 893.245361,684.056396 892.800720,691.955383 
	C886.241699,691.955383 879.635193,691.955383 872.734802,691.510254 
	C872.641663,689.114502 873.000732,687.165100 873.016968,685.212830 
	C873.108643,674.176208 873.118103,663.138794 873.607544,652.076294 
	C878.166565,652.033203 882.284729,652.183228 886.375305,651.913635 
	C887.964783,651.808899 889.491821,650.756897 891.047302,650.136353 
z"/>
<path fill="#F7AB10" opacity="1.000000" stroke="none" 
	d="
M674.123657,665.952393 
	C675.114868,665.965332 676.106018,665.987671 677.097168,665.989746 
	C685.468445,666.007324 685.468445,666.006165 684.660034,675.011841 
	C682.963806,675.011841 681.205627,675.011841 679.447388,675.011841 
	C677.822388,675.011841 676.197388,675.011841 674.290771,675.011841 
	C674.290771,678.017395 674.290771,680.729919 674.290771,684.031311 
	C676.581726,684.031311 678.831909,684.031311 681.192627,684.276611 
	C679.101135,684.775940 676.898987,685.029846 673.682617,685.400696 
	C678.300293,686.970581 685.146362,683.443848 683.977722,691.820251 
	C677.953064,691.820251 671.928406,691.820251 665.238159,691.820251 
	C665.238159,678.305115 665.238159,664.327148 665.770752,650.470215 
	C667.801147,651.060608 669.275269,651.808594 670.801819,651.937622 
	C673.438232,652.160645 676.140320,651.746643 678.750427,652.090027 
	C680.421265,652.309875 681.976257,653.409851 683.583191,654.115295 
	C682.070984,654.745972 680.565857,655.394775 679.040344,655.991394 
	C678.752136,656.104065 678.382568,656.001770 678.050964,656.011292 
	C672.118408,656.182129 669.192078,660.143555 671.112305,665.642639 
	C671.407532,666.488037 672.663147,666.998108 673.474609,667.663269 
	C673.690918,667.092957 673.907288,666.522644 674.123657,665.952393 
z"/>
<path fill="#F6AD16" opacity="1.000000" stroke="none" 
	d="
M410.812469,653.977051 
	C411.263489,657.027100 411.714508,660.077148 412.259888,663.765259 
	C413.287933,660.243347 414.762512,657.342102 414.852539,654.398438 
	C415.001709,649.519226 418.698975,649.590027 421.576294,649.173950 
	C423.224640,648.935608 425.830658,649.734253 424.530334,653.133972 
	C422.059265,659.594788 419.703491,666.130737 417.875122,672.793396 
	C416.941803,676.194458 417.185974,679.934448 417.026917,683.526978 
	C416.910461,686.157349 417.004150,688.797119 417.004150,691.713989 
	C413.941711,691.713989 411.219482,691.713989 407.957703,691.713989 
	C407.957703,689.316589 407.765808,687.013611 407.990723,684.752197 
	C408.994690,674.658203 405.310944,665.623962 401.824127,656.529114 
	C401.485779,655.646606 401.298584,654.706177 401.478577,653.318115 
	C404.881470,653.221375 407.846954,653.599182 410.812469,653.977051 
z"/>
<path fill="#F7AB10" opacity="1.000000" stroke="none" 
	d="
M739.095642,658.110046 
	C735.615356,658.547546 732.135132,658.985046 728.324585,659.464111 
	C728.324585,661.337769 728.324585,663.392334 728.324585,665.880859 
	C731.726501,665.880859 735.147949,665.880859 738.785339,665.880859 
	C738.785339,669.039429 738.785339,671.774170 738.785339,674.970825 
	C735.276123,674.970825 731.874817,674.970825 728.069031,674.970825 
	C728.069031,680.833374 728.069031,686.257690 728.069031,691.756897 
	C725.148743,691.987183 722.630249,692.185791 719.825073,692.407043 
	C719.587830,691.814148 719.056030,691.101257 719.052856,690.385986 
	C718.996765,677.736572 718.985168,665.086792 719.046204,652.437500 
	C719.050049,651.644714 719.730530,650.855225 720.714966,650.446533 
	C722.214111,651.206543 723.082275,651.872986 723.976990,651.910828 
	C727.462402,652.058228 730.965576,651.870178 734.441284,652.109375 
	C735.523865,652.183899 736.540710,653.213806 737.587646,653.806458 
	C736.511963,654.533203 735.522705,655.508850 734.337585,655.920532 
	C733.012695,656.380676 731.510071,656.329407 730.084839,656.500671 
	C730.140808,657.037109 730.196777,657.573608 730.252747,658.110046 
	C733.200378,658.110046 736.148010,658.110046 739.095642,658.110046 
z"/>
<path fill="#F7AB10" opacity="1.000000" stroke="none" 
	d="
M190.842346,681.972717 
	C192.589890,682.961243 194.512543,684.913025 196.030228,684.637207 
	C197.270569,684.411682 198.814819,681.551636 198.867645,679.818298 
	C199.150177,670.547180 199.006943,661.263184 199.416107,651.668579 
	C203.846725,651.730286 205.397537,653.761780 205.066589,657.925781 
	C204.687073,662.700867 204.842087,667.534485 205.021088,672.333130 
	C205.166565,676.233337 205.690277,680.119385 206.243607,684.005676 
	C206.440979,683.999634 206.835800,683.989929 206.835800,683.989929 
	C203.590347,693.020874 193.844955,696.143616 186.166275,690.473022 
	C185.120499,689.700684 184.724411,688.048584 184.221497,686.113525 
	C184.348969,676.223877 184.173080,667.022888 184.309525,657.826660 
	C184.336365,656.017639 185.568878,654.226562 186.245331,652.427185 
	C187.162628,654.062500 188.805771,655.669556 188.870636,657.338013 
	C189.140549,664.281921 188.838196,671.246521 188.992172,678.198059 
	C189.020325,679.469299 190.196243,680.715149 190.842346,681.972717 
z"/>
<path fill="#F6AD16" opacity="1.000000" stroke="none" 
	d="
M140.874969,675.901123 
	C140.874969,678.492554 140.874969,681.083923 140.874969,684.010986 
	C142.936523,684.010986 145.442749,684.286499 147.865387,683.953552 
	C152.897400,683.261963 153.566391,686.177307 152.858078,689.902283 
	C152.673035,690.875427 150.968353,692.187317 149.891296,692.256958 
	C144.524994,692.604248 139.130966,692.731018 133.757782,692.568420 
	C132.809540,692.539734 131.126526,690.780151 131.113190,689.801758 
	C130.935196,676.732422 130.994141,663.659912 130.994141,650.135071 
	C134.079697,650.135071 136.827591,650.135071 139.801239,650.959717 
	C140.309662,659.823303 140.592316,667.862244 140.874969,675.901123 
z"/>
<path fill="#F7AB10" opacity="1.000000" stroke="none" 
	d="
M565.067444,658.872131 
	C564.120544,658.787415 563.173706,658.702698 562.118958,658.608337 
	C562.118958,660.898804 562.118958,663.177795 562.118958,665.341797 
	C566.041931,665.987488 570.034485,666.117126 573.490784,667.544800 
	C574.488647,667.956909 573.944763,672.101501 574.135742,674.953430 
	C570.009827,674.953430 566.260498,674.953430 562.265259,674.953430 
	C562.265259,678.078552 562.265259,680.800171 562.265259,683.948730 
	C566.135803,683.948730 569.889709,683.948730 573.717041,683.948730 
	C573.982300,686.533508 574.205933,688.712158 574.540710,691.974304 
	C569.297607,691.974304 564.101013,691.974304 558.308594,691.554199 
	C557.169617,689.943665 556.169434,688.758728 556.154724,687.561768 
	C556.022400,676.798279 555.993103,666.031616 556.163086,655.269531 
	C556.179749,654.212952 557.661621,652.359375 558.584534,652.279663 
	C562.526855,651.939453 566.518066,652.040527 570.482727,652.199890 
	C571.196838,652.228577 571.869507,653.288086 572.561340,653.871643 
	C571.797607,654.557129 571.094604,655.729675 570.258423,655.833923 
	C568.033386,656.111206 565.751038,655.928162 562.794556,655.928162 
	C563.911377,657.374695 564.489380,658.123413 565.067444,658.872131 
z"/>
<path fill="#E9A213" opacity="1.000000" stroke="none" 
	d="
M428.608917,184.098083 
	C428.679901,186.619827 428.045288,189.079773 428.044128,191.540009 
	C428.000183,286.001007 428.014221,380.462006 428.026672,475.381470 
	C427.355713,474.475372 426.678619,473.110809 426.274292,470.985779 
	C426.698639,468.577759 426.982452,466.930267 426.982849,465.282715 
	C427.003540,379.473602 427.005768,293.664490 426.964111,207.855377 
	C426.963165,205.907104 426.435944,203.959076 426.154236,202.010941 
	C426.098877,197.255768 425.888885,192.494019 426.091309,187.749847 
	C426.145325,186.484375 427.461853,185.272766 428.608917,184.098083 
z"/>
<path fill="#FFAC00" opacity="1.000000" stroke="none" 
	d="
M426.085327,202.474930 
	C426.435944,203.959076 426.963165,205.907104 426.964111,207.855377 
	C427.005768,293.664490 427.003540,379.473602 426.982849,465.282715 
	C426.982452,466.930267 426.698639,468.577759 426.344543,470.576416 
	C426.095154,462.597046 426.008179,454.266602 426.007629,445.936127 
	C426.002350,364.937042 426.011414,283.937988 426.085327,202.474930 
z"/>
<path fill="#F9AB0E" opacity="1.000000" stroke="none" 
	d="
M781.830322,652.966125 
	C781.830322,666.119141 781.830322,679.272156 781.830322,692.507324 
	C779.590698,692.269836 778.192078,692.121521 776.403320,691.445007 
	C776.013062,678.182434 776.013062,665.448059 776.013062,652.326965 
	C778.606140,652.611877 780.218262,652.789001 781.830322,652.966125 
z"/>
<path fill="#F4B523" opacity="1.000000" stroke="none" 
	d="
M565.507690,658.944946 
	C564.489380,658.123413 563.911377,657.374695 562.794556,655.928162 
	C565.751038,655.928162 568.033386,656.111206 570.258423,655.833923 
	C571.094604,655.729675 571.797607,654.557129 572.561340,653.871643 
	C571.869507,653.288086 571.196838,652.228577 570.482727,652.199890 
	C566.518066,652.040527 562.526855,651.939453 558.584534,652.279663 
	C557.661621,652.359375 556.179749,654.212952 556.163086,655.269531 
	C555.993103,666.031616 556.022400,676.798279 556.154724,687.561768 
	C556.169434,688.758728 557.169617,689.943665 557.845886,691.478760 
	C556.571533,691.823303 555.164001,691.823303 553.817261,691.823303 
	C553.817261,677.680115 553.817261,664.165894 553.817261,650.316711 
	C560.954163,650.316711 567.669128,650.316711 574.675537,650.316711 
	C574.771423,650.846497 574.963135,651.448120 574.977417,652.054016 
	C575.143066,659.074951 575.135925,659.075195 567.942017,659.030396 
	C567.277283,659.026306 566.612610,659.021973 565.507690,658.944946 
z"/>
<path fill="#F4B523" opacity="1.000000" stroke="none" 
	d="
M190.915771,681.511841 
	C190.196243,680.715149 189.020325,679.469299 188.992172,678.198059 
	C188.838196,671.246521 189.140549,664.281921 188.870636,657.338013 
	C188.805771,655.669556 187.162628,654.062500 186.245331,652.427185 
	C185.568878,654.226562 184.336365,656.017639 184.309525,657.826660 
	C184.173080,667.022888 184.348969,676.223877 184.193665,685.742310 
	C183.315460,684.645264 182.112244,683.237488 182.090103,681.811401 
	C181.928040,671.367737 182.002716,660.920410 182.002716,649.975281 
	C183.705154,649.975281 185.153259,650.104858 186.570221,649.949829 
	C190.165268,649.556519 191.139450,651.231750 191.069168,654.615051 
	C190.886200,663.423767 190.996109,672.238586 190.915771,681.511841 
z"/>
<path fill="#EBAC29" opacity="1.000000" stroke="none" 
	d="
M944.943909,651.581543 
	C941.692139,651.960205 938.244507,652.044006 934.798828,651.991760 
	C928.279663,651.892822 927.998352,652.114807 927.989868,658.501526 
	C927.975586,669.303467 927.982300,680.105408 927.971985,691.364624 
	C926.230957,692.177246 924.592773,692.397400 925.257690,688.982239 
	C925.416565,679.832031 925.294067,671.429749 925.171570,663.027466 
	C925.171570,658.898254 925.171570,654.769043 925.171570,649.467041 
	C931.838196,650.065735 938.293518,650.645447 944.943909,651.581543 
z"/>
<path fill="#F4B523" opacity="1.000000" stroke="none" 
	d="
M310.997894,688.997803 
	C315.132263,677.096130 312.023651,664.934204 313.104797,652.516235 
	C310.742004,652.839233 309.222626,653.046936 307.420166,653.141357 
	C306.387848,647.408997 311.929626,651.504578 313.244568,649.072998 
	C314.159485,650.361328 315.836517,651.631775 315.867340,652.940918 
	C316.089935,662.395508 316.124146,671.861755 315.876831,681.315369 
	C315.811920,683.796265 314.547089,686.245850 313.134613,688.865967 
	C311.957611,689.015137 311.479309,689.008118 311.000519,689.000488 
	C311.000000,689.000000 310.997894,688.997803 310.997894,688.997803 
z"/>
<path fill="#F4B523" opacity="1.000000" stroke="none" 
	d="
M674.067078,665.505310 
	C673.907288,666.522644 673.690918,667.092957 673.474609,667.663269 
	C672.663147,666.998108 671.407532,666.488037 671.112305,665.642639 
	C669.192078,660.143555 672.118408,656.182129 678.050964,656.011292 
	C678.382568,656.001770 678.752136,656.104065 679.040344,655.991394 
	C680.565857,655.394775 682.070984,654.745972 683.583191,654.115295 
	C681.976257,653.409851 680.421265,652.309875 678.750427,652.090027 
	C676.140320,651.746643 673.438232,652.160645 670.801819,651.937622 
	C669.275269,651.808594 667.801147,651.060608 666.140259,650.228516 
	C672.212769,649.922180 678.462646,649.787598 684.667725,650.252319 
	C685.542358,650.317810 687.047852,653.503418 686.730835,654.896545 
	C686.368469,656.489014 684.494751,658.491272 682.920227,658.884949 
	C680.289124,659.542725 677.374023,659.064453 674.010498,659.064453 
	C674.010498,661.215576 674.010498,663.136902 674.067078,665.505310 
z"/>
<path fill="#F4B523" opacity="1.000000" stroke="none" 
	d="
M624.808472,650.534302 
	C622.108887,651.270691 619.157715,652.077209 616.262512,651.910767 
	C611.595398,651.642456 609.761475,653.116882 609.903442,658.052979 
	C610.218323,668.997009 610.001221,679.956360 610.001282,691.366943 
	C609.185913,691.193054 607.659607,690.561462 607.659790,689.930298 
	C607.663086,677.861938 607.907043,665.793884 607.956238,653.725159 
	C607.972107,649.834778 608.927307,648.599426 613.200623,649.757874 
	C616.769226,650.725342 620.771729,650.092041 624.808472,650.534302 
z"/>
<path fill="#EBAC29" opacity="1.000000" stroke="none" 
	d="
M781.904419,652.536743 
	C780.218262,652.789001 778.606140,652.611877 776.013062,652.326965 
	C776.013062,665.448059 776.013062,678.182434 776.014038,691.374878 
	C775.006653,691.147156 773.998230,690.461365 773.271301,689.031250 
	C773.681763,675.601440 773.810791,662.915955 773.939819,650.230469 
	C776.051880,650.145935 778.178467,649.895508 780.267212,650.078125 
	C780.891968,650.132690 781.411011,651.397217 781.904419,652.536743 
z"/>
<path fill="#EBAC29" opacity="1.000000" stroke="none" 
	d="
M873.155640,652.101685 
	C873.118103,663.138794 873.108643,674.176208 873.016968,685.212830 
	C873.000732,687.165100 872.641663,689.114502 872.279175,691.433655 
	C871.754883,690.868103 871.080994,689.935547 871.076599,688.999817 
	C871.018188,676.593018 871.039001,664.185669 871.111633,651.778809 
	C871.115051,651.191284 871.786316,650.607666 872.592712,650.413574 
	C873.077820,651.237183 873.116699,651.669434 873.155640,652.101685 
z"/>
<path fill="#EBAC29" opacity="1.000000" stroke="none" 
	d="
M836.557739,650.060059 
	C832.950256,652.417114 832.783691,656.154175 832.955200,660.223206 
	C833.167786,665.266113 833.006165,670.324890 832.152222,675.349609 
	C831.414612,673.396973 830.676941,671.444336 829.904663,669.197754 
	C829.870117,662.770935 829.870117,656.638184 829.870117,649.985840 
	C832.243225,649.985840 834.176575,649.985840 836.557739,650.060059 
z"/>
<path fill="#F4B523" opacity="1.000000" stroke="none" 
	d="
M739.428284,657.913940 
	C736.148010,658.110046 733.200378,658.110046 730.252747,658.110046 
	C730.196777,657.573608 730.140808,657.037109 730.084839,656.500671 
	C731.510071,656.329407 733.012695,656.380676 734.337585,655.920532 
	C735.522705,655.508850 736.511963,654.533203 737.587646,653.806458 
	C736.540710,653.213806 735.523865,652.183899 734.441284,652.109375 
	C730.965576,651.870178 727.462402,652.058228 723.976990,651.910828 
	C723.082275,651.872986 722.214111,651.206543 721.146057,650.491882 
	C725.774902,650.096069 730.591370,650.000366 735.408020,649.988098 
	C740.938171,649.974060 742.286560,652.403442 739.428284,657.913940 
z"/>
<path fill="#FCFFFF" opacity="1.000000" stroke="none" 
	d="
M544.054443,332.893433 
	C544.384338,333.020142 544.927246,333.575623 544.926086,334.130035 
	C544.887268,353.106049 544.796997,372.082001 544.403320,391.291168 
	C544.066345,372.123474 544.040100,352.722595 544.054443,332.893433 
z"/>
<path fill="#EBAC29" opacity="1.000000" stroke="none" 
	d="
M819.692627,650.053711 
	C816.042236,652.380066 815.894470,656.076538 815.975281,660.174744 
	C816.177063,670.418152 816.048157,680.668091 816.049866,691.373413 
	C815.871582,691.873962 815.695312,691.916626 815.247681,691.445984 
	C814.972168,681.543213 815.042969,672.152832 814.927979,662.764771 
	C814.880066,658.853088 814.436523,654.946228 814.172852,651.037170 
	C815.875122,650.684875 817.577332,650.332520 819.692627,650.053711 
z"/>
<path fill="#EBAC29" opacity="1.000000" stroke="none" 
	d="
M370.439636,691.901245 
	C370.487610,686.362305 370.970673,680.895569 371.786621,675.216919 
	C372.380890,680.368652 372.672760,685.731506 372.815643,691.098328 
	C372.822968,691.372620 371.550995,691.680969 370.439636,691.901245 
z"/>
<path fill="#EBAC29" opacity="1.000000" stroke="none" 
	d="
M206.046234,684.011719 
	C205.690277,680.119385 205.166565,676.233337 205.021088,672.333130 
	C204.842087,667.534485 204.687073,662.700867 205.066589,657.925781 
	C205.397537,653.761780 203.846725,651.730286 199.473938,651.206909 
	C200.471268,646.546265 203.406815,651.290894 205.680145,650.537170 
	C206.052216,662.054382 206.049225,673.033081 206.046234,684.011719 
z"/>
<path fill="#F6AD16" opacity="1.000000" stroke="none" 
	d="
M814.101379,651.497986 
	C814.436523,654.946228 814.880066,658.853088 814.927979,662.764771 
	C815.042969,672.152832 814.972168,681.543213 814.981079,691.391846 
	C814.657898,690.382324 814.054016,688.915283 814.045532,687.444763 
	C813.976868,675.616455 814.020569,663.787537 814.101379,651.497986 
z"/>
<path fill="#FFAC00" opacity="1.000000" stroke="none" 
	d="
M773.588013,650.443481 
	C773.810791,662.915955 773.681763,675.601440 773.347900,688.646118 
	C773.174072,676.222351 773.205078,663.439392 773.588013,650.443481 
z"/>
<path fill="#F4B523" opacity="1.000000" stroke="none" 
	d="
M873.607483,652.076294 
	C873.116699,651.669434 873.077820,651.237183 873.031494,650.480469 
	C878.719116,650.104431 884.414062,650.052917 890.578125,650.068848 
	C889.491821,650.756897 887.964783,651.808899 886.375305,651.913635 
	C882.284729,652.183228 878.166565,652.033203 873.607483,652.076294 
z"/>
<path fill="#F4B523" opacity="1.000000" stroke="none" 
	d="
M364.783539,650.534912 
	C359.773254,653.395569 354.549408,652.275513 349.141113,650.489502 
	C354.155365,650.162659 359.355347,650.171875 364.783539,650.534912 
z"/>
<path fill="#EBAC29" opacity="1.000000" stroke="none" 
	d="
M684.366943,691.885132 
	C685.146362,683.443848 678.300293,686.970581 673.682617,685.400696 
	C676.898987,685.029846 679.101135,684.775940 681.638550,684.345276 
	C683.473145,684.786865 685.792480,685.026489 686.291016,686.106628 
	C687.174255,688.020142 688.303467,690.835571 684.366943,691.885132 
z"/>
<path fill="#F6AD16" opacity="1.000000" stroke="none" 
	d="
M206.243607,684.005676 
	C206.049225,673.033081 206.052216,662.054382 206.068481,650.617310 
	C206.387039,651.485962 206.947433,652.811157 206.956787,654.140259 
	C207.024765,663.781006 206.981583,673.422485 206.904694,683.526855 
	C206.835800,683.989929 206.440979,683.999634 206.243607,684.005676 
z"/>
<path fill="#F4B523" opacity="1.000000" stroke="none" 
	d="
M410.785492,653.584839 
	C407.846954,653.599182 404.881470,653.221375 401.558472,652.929443 
	C401.777527,651.680237 402.354095,650.345093 402.930664,649.009949 
	C405.230621,650.983093 410.092102,648.162415 410.785492,653.584839 
z"/>
<path fill="#FFAC00" opacity="1.000000" stroke="none" 
	d="
M925.104736,663.489868 
	C925.294067,671.429749 925.416565,679.832031 925.329651,688.580811 
	C925.092773,680.602234 925.065369,672.277222 925.104736,663.489868 
z"/>
<path fill="#F4B523" opacity="1.000000" stroke="none" 
	d="
M140.960602,675.449585 
	C140.592316,667.862244 140.309662,659.823303 140.046387,651.304993 
	C140.399933,653.793945 140.933670,656.756287 141.023788,659.732056 
	C141.177734,664.816284 141.053574,669.908936 140.960602,675.449585 
z"/>
<path fill="#F4B523" opacity="1.000000" stroke="none" 
	d="
M308.327271,691.875610 
	C308.773499,690.892273 309.548248,689.978271 310.660461,689.031067 
	C310.997894,688.997803 311.000000,689.000000 310.996246,689.302979 
	C310.989655,690.009216 310.986816,690.412476 310.983948,690.815796 
	C310.207916,691.192139 309.431854,691.568481 308.327271,691.875610 
z"/>
<path fill="#F6AD16" opacity="1.000000" stroke="none" 
	d="
M311.285187,690.840088 
	C310.986816,690.412476 310.989655,690.009216 310.996765,689.303467 
	C311.479309,689.008118 311.957611,689.015137 312.793732,689.044128 
	C312.629852,689.665527 312.108124,690.265015 311.285187,690.840088 
z"/>
<path fill="#000000" opacity="1.000000" stroke="none" 
	d="
M627.029724,563.056274 
	C626.866943,571.609131 619.535645,579.432739 611.863708,578.709167 
	C605.133484,578.074280 597.813171,572.700623 598.023804,565.359863 
	C598.313843,555.250488 602.928894,548.233215 611.307556,548.237366 
	C618.430298,548.240845 627.146179,552.844849 627.029724,563.056274 
z"/>
<path fill="#000000" opacity="1.000000" stroke="none" 
	d="
M356.948242,565.865051 
	C355.147614,567.042908 353.260559,567.858398 350.017548,569.259949 
	C351.399139,564.661011 352.297516,561.670593 353.420349,557.933044 
	C354.763123,560.886597 355.812469,563.194641 356.948242,565.865051 
z"/>
<path fill="#000000" opacity="1.000000" stroke="none" 
	d="
M780.961060,563.848633 
	C781.806152,561.560608 782.622070,559.645935 783.511108,557.559692 
	C784.475220,561.000122 785.371521,564.198364 786.350464,567.691650 
	C784.164734,567.691650 781.997986,567.691650 779.457458,567.691650 
	C779.974609,566.474609 780.453247,565.348328 780.961060,563.848633 
z"/>
<path fill="#000000" opacity="1.000000" stroke="none" 
	d="
M290.041565,556.716492 
	C290.014130,553.655212 290.014130,551.052002 290.014130,548.325989 
	C294.875366,547.753662 299.431671,547.113159 301.656158,551.900818 
	C302.335938,553.363831 301.304077,557.043701 300.016174,557.715820 
	C296.941864,559.320374 293.158752,560.906677 290.041565,556.716492 
z"/>
<path fill="#000000" opacity="1.000000" stroke="none" 
	d="
M687.173340,549.716797 
	C690.336060,554.791138 688.737915,558.245178 683.181091,558.934631 
	C681.072388,559.196289 678.904053,558.977112 676.382324,558.977112 
	C676.382324,555.360413 676.382324,551.994934 676.382324,547.494202 
	C680.040466,548.171509 683.457764,548.804199 687.173340,549.716797 
z"/>
<path fill="#000000" opacity="1.000000" stroke="none" 
	d="
M506.429993,665.713745 
	C505.587921,663.547668 505.126617,661.591187 504.570831,659.234009 
	C507.694397,659.234009 510.100739,659.234009 512.495850,659.234009 
	C513.425415,666.052307 513.382507,666.101929 506.429993,665.713745 
z"/>
<path fill="#000000" opacity="1.000000" stroke="none" 
	d="
M361.630188,665.962097 
	C359.923157,665.982605 358.653687,665.982605 357.215118,665.982605 
	C357.215118,663.457642 357.215118,661.391541 357.215118,658.332581 
	C359.721771,659.147705 362.207642,659.323914 363.524506,660.655884 
	C364.165375,661.304077 362.622223,664.111572 361.630188,665.962097 
z"/>
<path fill="#000000" opacity="1.000000" stroke="none" 
	d="
M623.990662,673.941223 
	C623.976440,675.257446 623.971680,676.086548 623.973267,676.915710 
	C623.987854,684.344360 623.988220,684.344360 616.291931,683.775696 
	C616.291931,675.412842 616.291931,667.020325 616.291931,658.602112 
	C616.499451,658.621033 616.765259,658.637146 617.028748,658.670593 
	C623.970703,659.550354 623.972900,659.550659 624.003235,666.986877 
	C624.012024,669.142578 624.003601,671.298401 623.990662,673.941223 
z"/>
<path fill="#000000" opacity="1.000000" stroke="none" 
	d="
M933.979980,664.154358 
	C934.052490,662.226685 934.124756,660.780457 934.194519,659.384766 
	C942.003052,658.504211 942.004700,658.504211 942.003296,665.875488 
	C942.002625,669.514587 941.995850,673.153748 941.989746,676.792847 
	C941.977112,684.282043 941.957703,684.299927 933.979797,683.779724 
	C933.979797,677.435059 933.979797,671.035400 933.979980,664.154358 
z"/>
</svg>